<?xml version="1.0" encoding="UTF-8"?>
<svg version="1.1" xmlns="http://www.w3.org/2000/svg" width="86" height="69">
<path d="M0 0 C25.74 0 51.48 0 78 0 C78 22.11 78 44.22 78 67 C52.26 67 26.52 67 0 67 C0 44.89 0 22.78 0 0 Z " fill="#57687D" transform="translate(4,1)"/>
<path d="M0 0 C22.77 0 45.54 0 69 0 C69 8.91 69 17.82 69 27 C62.41772152 27 62.41772152 27 59 25.3125 C56.99384918 24.42953956 56.99384918 24.42953956 55 24 C51.9000525 25.25829702 51.9000525 25.25829702 49 27 C45.83996645 27.21793335 43.1408875 27.32298037 40.08203125 26.45703125 C37.64694951 25.92250111 35.78037085 26.1156038 33.3125 26.4375 C28.5017244 26.99506389 23.84060607 27.07807429 19 27 C18.34 25.68 17.68 24.36 17 23 C14.03 23 11.06 23 8 23 C8.33 23.66 8.66 24.32 9 25 C8.67 25.66 8.34 26.32 8 27 C5.36 27 2.72 27 0 27 C0 18.09 0 9.18 0 0 Z " fill="#ECEBEB" transform="translate(9,5)"/>
<path d="M0 0 C25.74 0 51.48 0 78 0 C78 22.11 78 44.22 78 67 C52.26 67 26.52 67 0 67 C0 44.89 0 22.78 0 0 Z M4 3 C4 22.8 4 42.6 4 63 C27.1 63 50.2 63 74 63 C74 53.76 74 44.52 74 35 C68.90207844 33.30069281 66.15625988 32.7937496 61 33 C61 33.99 61 34.98 61 36 C60.34 36 59.68 36 59 36 C59 35.01 59 34.02 59 33 C56.69 33 54.38 33 52 33 C52 33.66 52 34.32 52 35 C51.34 35 50.68 35 50 35 C50 34.34 50 33.68 50 33 C48.83428467 33 47.66856934 33 46.4675293 33 C32.64501953 33 18.82250977 33 5 33 C5 32.34 5 31.68 5 31 C7.64 31 10.28 31 13 31 C14.05270463 28.36893239 14.05270463 28.36893239 14 27 C16.64 27 19.28 27 22 27 C22.66 28.32 23.32 29.64 24 31 C30.23706806 31.10395113 36.2903325 30.76306905 42.49609375 30.12109375 C45 30 45 30 47 31 C51.23082304 31.33182926 53.63687672 31.1750773 57.5 29.3125 C61 28 61 28 64.5625 29.3125 C65.696875 29.869375 66.83125 30.42625 68 31 C69.98 31 71.96 31 74 31 C74 21.76 74 12.52 74 3 C50.9 3 27.8 3 4 3 Z " fill="#6C9982" transform="translate(4,1)"/>
<path d="M0 0 C1.62600941 0.0870005 3.25089678 0.1951781 4.875 0.3125 C5.77992187 0.37050781 6.68484375 0.42851562 7.6171875 0.48828125 C10 1 10 1 12 4 C18.21734423 4.40111898 24.30808748 3.76123233 30.49609375 3.12109375 C33 3 33 3 35 4 C39.23082304 4.33182926 41.63687672 4.1750773 45.5 2.3125 C49 1 49 1 52.5625 2.1875 C54.2640625 3.0846875 54.2640625 3.0846875 56 4 C57.99263591 4.68836513 59.99041337 5.36281399 62 6 C58.8250906 7.9078584 56.89414789 8.1609041 53.25 7.625 C52.45078125 7.51414062 51.6515625 7.40328125 50.828125 7.2890625 C49.92320313 7.14597656 49.92320313 7.14597656 49 7 C49 7.99 49 8.98 49 10 C48.34 10 47.68 10 47 10 C47 9.01 47 8.02 47 7 C44.69 7 42.38 7 40 7 C40 7.66 40 8.32 40 9 C39.34 9 38.68 9 38 9 C38 8.34 38 7.68 38 7 C25.13 7 12.26 7 -1 7 C-1.33 7.99 -1.66 8.98 -2 10 C-2 9.34 -2 8.68 -2 8 C-3.65 7.67 -5.3 7.34 -7 7 C-7 6.34 -7 5.68 -7 5 C-4.36 5 -1.72 5 1 5 C0.67 3.35 0.34 1.7 0 0 Z " fill="#7BA190" transform="translate(16,27)"/>
<path d="M0 0 C1.99039718 0.75161852 3.93054601 1.63334685 5.859375 2.53125 C5.859375 3.19125 5.859375 3.85125 5.859375 4.53125 C-2.060625 4.53125 -9.980625 4.53125 -18.140625 4.53125 C-18.140625 3.87125 -18.140625 3.21125 -18.140625 2.53125 C-17.48835938 2.56605469 -16.83609375 2.60085937 -16.1640625 2.63671875 C-10.36417913 2.86737811 -10.36417913 2.86737811 -5.015625 0.84375 C-2.140625 -0.46875 -2.140625 -0.46875 0 0 Z " fill="#424C5B" transform="translate(66.140625,28.46875)"/>
<path d="M0 0 C1.58421738 0.03325647 3.16769377 0.10289692 4.75 0.1875 C5.63171875 0.22230469 6.5134375 0.25710937 7.421875 0.29296875 C10 1 10 1 14 6 C9.05 6 4.1 6 -1 6 C-0.34 5.67 0.32 5.34 1 5 C0.67 3.35 0.34 1.7 0 0 Z " fill="#5B6371" transform="translate(16,27)"/>
<path d="M0 0 C0.33 0.66 0.66 1.32 1 2 C4.63 1.67 8.26 1.34 12 1 C7.62703266 3.18648367 4.4791784 3.23362071 -0.25 3.125 C-0.99507812 3.11597656 -1.74015625 3.10695312 -2.5078125 3.09765625 C-4.33868059 3.07418358 -6.16938238 3.03831525 -8 3 C-8.33 3.99 -8.66 4.98 -9 6 C-9 5.34 -9 4.68 -9 4 C-10.65 3.67 -12.3 3.34 -14 3 C-14 2.34 -14 1.68 -14 1 C-7.07 1.495 -7.07 1.495 0 2 C0 1.34 0 0.68 0 0 Z " fill="#8CAC9E" transform="translate(23,31)"/>
</svg>
