<?xml version="1.0" encoding="UTF-8"?>
<svg version="1.1" xmlns="http://www.w3.org/2000/svg" width="166" height="147">
<path d="M0 0 C6.993303 3.63777197 9.30169097 7.02525693 12.7421875 13.90625 C13.36094175 18.82092661 13.31776152 22.7329645 11.1171875 27.21875 C6.79199377 31.64482288 -0.47870842 33.25089192 -6.2578125 34.90625 C-6.9178125 34.90625 -7.5778125 34.90625 -8.2578125 34.90625 C-9.83054818 37.7487354 -9.83054818 37.7487354 -10.2578125 40.90625 C-9.9278125 40.57625 -9.5978125 40.24625 -9.2578125 39.90625 C-0.09466632 40.38852085 6.19250108 44.35201036 13.625 49.45703125 C15.47099016 50.72061492 17.3452887 51.90932276 19.2421875 53.09375 C21.7421875 54.90625 21.7421875 54.90625 22.7421875 57.90625 C25.45536794 58.78707622 28.03102267 59.48501229 30.8046875 60.09375 C31.56330078 60.27099609 32.32191406 60.44824219 33.10351562 60.63085938 C34.98040447 61.06761967 36.8609891 61.48844156 38.7421875 61.90625 C38.41992188 61.1740625 38.09765625 60.441875 37.765625 59.6875 C36.29813895 55.69952264 36.10025477 52.10173894 36.7421875 47.90625 C38.6171875 45.09375 38.6171875 45.09375 40.7421875 42.90625 C41.45104644 41.59486096 42.13675202 40.26847983 42.7421875 38.90625 C44.9921875 38.59375 44.9921875 38.59375 47.7421875 38.90625 C49.84876442 41.12985897 51.37480184 43.17147868 52.7421875 45.90625 C53.7321875 44.58625 54.7221875 43.26625 55.7421875 41.90625 C56.3196875 42.23625 56.8971875 42.56625 57.4921875 42.90625 C59.94102612 44.17700898 59.94102612 44.17700898 63.7421875 43.90625 C66.55868686 48.30703026 66.1791386 52.47915188 65.27734375 57.48828125 C63.05739243 66.88038297 58.72871477 74.36457802 50.7421875 79.90625 C45.06138243 83.07439129 40.10349558 83.85057374 33.7421875 82.90625 C28.17553714 81.2813899 22.69047899 79.38553214 17.5 76.78125 C15.30055403 75.68641467 13.15470307 75.30833593 10.7421875 74.90625 C10.7421875 74.24625 10.7421875 73.58625 10.7421875 72.90625 C10.0821875 72.90625 9.4221875 72.90625 8.7421875 72.90625 C7.05507327 71.2602849 5.3876253 69.59387851 3.7421875 67.90625 C3.4121875 67.90625 3.0821875 67.90625 2.7421875 67.90625 C3.21846725 69.86528745 3.69830173 71.82346097 4.1796875 73.78125 C4.44652344 74.87179688 4.71335937 75.96234375 4.98828125 77.0859375 C5.6208353 79.83109721 5.6208353 79.83109721 6.7421875 81.90625 C9.22453735 83.24494581 11.70240941 84.49891705 14.2421875 85.71875 C15.71404292 86.44429654 17.18540123 87.17085242 18.65625 87.8984375 C20.91979423 89.01221233 23.18508514 90.12195519 25.453125 91.2265625 C32.48929348 94.85895272 40.36843123 100.20366611 43.8671875 107.53125 C44.83604412 111.26826838 45.23976581 114.06778877 44.7421875 117.90625 C42.663089 121.13243733 40.94179221 122.7731802 37.7421875 124.90625 C33.86344598 125.35356771 29.95637632 125.23839081 26.0546875 125.21875 C24.92651611 125.21383545 23.79834473 125.2089209 22.63598633 125.20385742 C10.00817238 125.02793232 -1.1371215 123.3925697 -12.70703125 117.9921875 C-17.93721571 115.76555461 -21.44039706 115.91865093 -26.95703125 117.26953125 C-27.59212112 117.42157516 -28.227211 117.57361908 -28.88154602 117.73027039 C-30.90529598 118.21673637 -32.9252591 118.71717787 -34.9453125 119.21875 C-69.60652841 127.6625665 -69.60652841 127.6625665 -77.6328125 122.90625 C-79.67802457 119.13047387 -80.21370669 116.11218443 -79.2578125 111.90625 C-73.80302724 101.22950568 -61.5089814 93.83269411 -50.64599609 89.69189453 C-45.07683308 87.73016839 -45.07683308 87.73016839 -40.73828125 83.96484375 C-39.94517311 81.90588814 -39.5267018 80.0920598 -39.2578125 77.90625 C-39.0309375 76.75125 -38.8040625 75.59625 -38.5703125 74.40625 C-38.4671875 73.58125 -38.3640625 72.75625 -38.2578125 71.90625 C-39.1446875 72.525 -40.0315625 73.14375 -40.9453125 73.78125 C-43.77347497 75.5955429 -46.17401244 76.67455471 -49.2578125 77.90625 C-51.11601532 78.89872988 -52.9699409 79.89924505 -54.8203125 80.90625 C-64.04632363 85.5647039 -74.79741374 87.63341368 -84.8828125 84.71875 C-89.00948362 83.21941618 -91.45168109 81.35378288 -94.2578125 77.90625 C-94.9796875 77.060625 -95.7015625 76.215 -96.4453125 75.34375 C-100.68494362 67.30307029 -101.05720876 57.72909615 -99.2578125 48.90625 C-98.2109375 46.59375 -98.2109375 46.59375 -97.2578125 44.90625 C-95.9378125 45.23625 -94.6178125 45.56625 -93.2578125 45.90625 C-92.2678125 44.58625 -91.2778125 43.26625 -90.2578125 41.90625 C-89.7009375 42.133125 -89.1440625 42.36 -88.5703125 42.59375 C-86.11632552 43.17396216 -86.11632552 43.17396216 -83.8203125 41.40625 C-81.2578125 39.90625 -81.2578125 39.90625 -78.6953125 39.96875 C-74.04281726 41.75817125 -71.31891501 45.47487959 -69.2578125 49.90625 C-68.68378352 54.4164777 -68.95144357 56.3796784 -71.2578125 60.34375 C-72.2478125 61.6121875 -72.2478125 61.6121875 -73.2578125 62.90625 C-66.14070973 61.97686888 -59.79671287 60.62738058 -53.21875 57.7109375 C-51.2578125 56.90625 -51.2578125 56.90625 -49.2578125 56.90625 C-49.18433594 56.32101563 -49.11085937 55.73578125 -49.03515625 55.1328125 C-47.98313531 52.1194862 -46.38096202 51.14130581 -43.8203125 49.28125 C-41.4750619 47.55713319 -39.31735577 45.96579327 -37.2578125 43.90625 C-38.5778125 43.24625 -39.8978125 42.58625 -41.2578125 41.90625 C-41.2578125 39.26625 -41.2578125 36.62625 -41.2578125 33.90625 C-42.2478125 34.40125 -42.2478125 34.40125 -43.2578125 34.90625 C-48.87623396 35.34691051 -52.36184956 34.45215073 -57.2578125 31.90625 C-58.86311427 28.69564647 -58.7333682 25.38919319 -58.2578125 21.90625 C-55.75826856 17.58011626 -52.83171305 15.77314818 -48.2578125 13.90625 C-43.40092336 12.70489933 -38.50190297 12.55716123 -33.52148438 12.30078125 C-29.76490317 12.13236563 -29.76490317 12.13236563 -26.2578125 10.90625 C-25.94263035 8.87616509 -25.94263035 8.87616509 -25.8828125 6.53125 C-25.49410546 2.15829583 -25.49410546 2.15829583 -23.3828125 -0.09375 C-16.16434237 -3.49067712 -7.25696804 -3.25208526 0 0 Z M1.7421875 4.90625 C2.24114161 7.50081139 2.91072139 9.18264559 4.3046875 11.46875 C6.32306732 16.29531044 5.99017562 20.74442329 5.7421875 25.90625 C8.74499928 25.215947 8.74499928 25.215947 9.9921875 23.28125 C11.0893694 19.80684066 10.59283366 17.43035551 9.7421875 13.90625 C7.57925018 10.02787964 5.4865177 7.31331942 1.7421875 4.90625 Z M-23.2578125 6.90625 C-22.2578125 8.90625 -22.2578125 8.90625 -22.2578125 8.90625 Z M-21.2578125 8.90625 C-21.9178125 10.22625 -22.5778125 11.54625 -23.2578125 12.90625 C-21.37956359 14.78449891 -18.21845974 14.29727397 -15.6953125 14.46875 C-14.49777344 14.55253906 -13.30023438 14.63632812 -12.06640625 14.72265625 C-11.13957031 14.78324219 -10.21273437 14.84382813 -9.2578125 14.90625 C-9.5878125 13.91625 -9.9178125 12.92625 -10.2578125 11.90625 C-14.36004835 10.89084888 -14.36004835 10.89084888 -18.2578125 11.90625 C-18.2578125 11.24625 -18.2578125 10.58625 -18.2578125 9.90625 C-19.2478125 9.57625 -20.2378125 9.24625 -21.2578125 8.90625 Z M-7.2578125 13.90625 C-6.2578125 15.90625 -6.2578125 15.90625 -6.2578125 15.90625 Z M-55.2578125 21.90625 C-56.4086439 25.97704208 -56.4086439 25.97704208 -55.1328125 29.78125 C-52.72058737 31.22858508 -51.022679 31.13042836 -48.2578125 30.90625 C-48.2578125 30.24625 -48.2578125 29.58625 -48.2578125 28.90625 C-48.8765625 28.679375 -49.4953125 28.4525 -50.1328125 28.21875 C-52.87191459 26.52695165 -53.30805722 24.91380839 -54.2578125 21.90625 C-54.5878125 21.90625 -54.9178125 21.90625 -55.2578125 21.90625 Z M-24.2578125 26.90625 C-24.59162064 30.28061186 -24.59162064 30.28061186 -24.2578125 33.90625 C-22.509373 35.92733177 -22.509373 35.92733177 -20.2578125 36.90625 C-19.5978125 36.90625 -18.9378125 36.90625 -18.2578125 36.90625 C-16.7794899 33.94960481 -17.19748467 31.16395263 -17.2578125 27.90625 C-16.6390625 28.091875 -16.0203125 28.2775 -15.3828125 28.46875 C-13.21621072 29.14311176 -13.21621072 29.14311176 -11.2578125 27.90625 C-11.6909375 28.73769531 -11.6909375 28.73769531 -12.1328125 29.5859375 C-12.5040625 30.31039062 -12.8753125 31.03484375 -13.2578125 31.78125 C-13.6290625 32.50054687 -14.0003125 33.21984375 -14.3828125 33.9609375 C-15.39454996 35.85473977 -15.39454996 35.85473977 -15.2578125 37.90625 C-13.24348984 37.40368888 -13.24348984 37.40368888 -11.2578125 35.90625 C-9.34317712 30.96257739 -9.34317712 30.96257739 -10.2578125 25.90625 C-15.67517047 24.97222276 -19.06232825 24.69816919 -24.2578125 26.90625 Z M-29.2578125 40.90625 C-26.9478125 41.23625 -24.6378125 41.56625 -22.2578125 41.90625 C-22.2578125 40.91625 -22.2578125 39.92625 -22.2578125 38.90625 C-26.21239098 38.55801193 -26.21239098 38.55801193 -29.2578125 40.90625 Z M-19.2578125 39.90625 C-19.3609375 40.525 -19.4640625 41.14375 -19.5703125 41.78125 C-20.2578125 43.90625 -20.2578125 43.90625 -23.2578125 45.90625 C-19.73721682 47.07978189 -16.9513195 47.10771402 -13.2578125 46.90625 C-12.5978125 46.24625 -11.9378125 45.58625 -11.2578125 44.90625 C-12.5778125 44.57625 -13.8978125 44.24625 -15.2578125 43.90625 C-15.5878125 42.58625 -15.9178125 41.26625 -16.2578125 39.90625 C-17.2478125 39.90625 -18.2378125 39.90625 -19.2578125 39.90625 Z M-82.9453125 46.40625 C-83.7084375 47.23125 -84.4715625 48.05625 -85.2578125 48.90625 C-84.9278125 49.56625 -84.5978125 50.22625 -84.2578125 50.90625 C-83.5978125 49.58625 -82.9378125 48.26625 -82.2578125 46.90625 C-80.2778125 46.90625 -78.2978125 46.90625 -76.2578125 46.90625 C-76.5878125 45.91625 -76.9178125 44.92625 -77.2578125 43.90625 C-80.50347108 43.56569803 -80.50347108 43.56569803 -82.9453125 46.40625 Z M48.7421875 46.90625 C49.7421875 48.90625 49.7421875 48.90625 49.7421875 48.90625 Z M40.7421875 47.90625 C41.7421875 49.90625 41.7421875 49.90625 41.7421875 49.90625 Z M61.7421875 47.90625 C61.54882812 48.47214844 61.35546875 49.03804687 61.15625 49.62109375 C60.89585937 50.35457031 60.63546875 51.08804688 60.3671875 51.84375 C59.98433594 52.94009766 59.98433594 52.94009766 59.59375 54.05859375 C58.7421875 55.90625 58.7421875 55.90625 56.7421875 56.90625 C56.7421875 54.59625 56.7421875 52.28625 56.7421875 49.90625 C56.4121875 49.90625 56.0821875 49.90625 55.7421875 49.90625 C55.4121875 53.20625 55.0821875 56.50625 54.7421875 59.90625 C53.7521875 59.90625 52.7621875 59.90625 51.7421875 59.90625 C51.7421875 57.26625 51.7421875 54.62625 51.7421875 51.90625 C51.4121875 51.90625 51.0821875 51.90625 50.7421875 51.90625 C50.4121875 55.20625 50.0821875 58.50625 49.7421875 61.90625 C48.4221875 62.23625 47.1021875 62.56625 45.7421875 62.90625 C45.1234375 63.23625 44.5046875 63.56625 43.8671875 63.90625 C37.98173981 66.67587244 32.73753869 65.77025919 26.7421875 63.90625 C26.05382812 63.55175781 25.36546875 63.19726562 24.65625 62.83203125 C22.6464389 61.68854157 22.6464389 61.68854157 19.7421875 61.90625 C19.0821875 64.87625 18.4221875 67.84625 17.7421875 70.90625 C31.03453095 78.22430401 31.03453095 78.22430401 45.7421875 77.90625 C52.84084528 74.84648371 56.76537394 70.16588542 60.00390625 63.1875 C62.06426684 57.92454382 63.24384533 53.54990059 62.7421875 47.90625 C62.4121875 47.90625 62.0821875 47.90625 61.7421875 47.90625 Z M-90.2578125 48.90625 C-89.2578125 50.90625 -89.2578125 50.90625 -89.2578125 50.90625 Z M43.7421875 48.90625 C43.44656383 54.22795494 43.44656383 54.22795494 45.7421875 58.90625 C46.7321875 58.57625 47.7221875 58.24625 48.7421875 57.90625 C47.7521875 54.93625 46.7621875 51.96625 45.7421875 48.90625 C45.0821875 48.90625 44.4221875 48.90625 43.7421875 48.90625 Z M49.7421875 48.90625 C50.7421875 50.90625 50.7421875 50.90625 50.7421875 50.90625 Z M-96.2578125 49.90625 C-95.2578125 52.90625 -95.2578125 52.90625 -95.2578125 52.90625 Z M39.7421875 49.90625 C39.7421875 51.55625 39.7421875 53.20625 39.7421875 54.90625 C40.0721875 54.90625 40.4021875 54.90625 40.7421875 54.90625 C40.7421875 53.25625 40.7421875 51.60625 40.7421875 49.90625 C40.4121875 49.90625 40.0821875 49.90625 39.7421875 49.90625 Z M-79.2578125 49.90625 C-82.44709042 51.57196971 -82.44709042 51.57196971 -83.0078125 54.40625 C-83.48216372 56.90254172 -83.48216372 56.90254172 -82.2578125 58.90625 C-80.29886889 58.79318303 -80.29886889 58.79318303 -78.2578125 57.90625 C-76.96120816 55.41590614 -76.96120816 55.41590614 -76.2578125 52.90625 C-77.2478125 51.91625 -78.2378125 50.92625 -79.2578125 49.90625 Z M-74.2578125 50.90625 C-74.2578125 52.88625 -74.2578125 54.86625 -74.2578125 56.90625 C-73.5978125 56.24625 -72.9378125 55.58625 -72.2578125 54.90625 C-72.2578125 53.58625 -72.2578125 52.26625 -72.2578125 50.90625 C-72.9178125 50.90625 -73.5778125 50.90625 -74.2578125 50.90625 Z M-86.2578125 51.90625 C-87.19567332 56.95634595 -87.19567332 56.95634595 -86.2578125 61.90625 C-87.2478125 61.90625 -88.2378125 61.90625 -89.2578125 61.90625 C-89.5878125 59.92625 -89.9178125 57.94625 -90.2578125 55.90625 C-90.5878125 55.90625 -90.9178125 55.90625 -91.2578125 55.90625 C-91.2578125 57.88625 -91.2578125 59.86625 -91.2578125 61.90625 C-92.2478125 61.57625 -93.2378125 61.24625 -94.2578125 60.90625 C-95.4453125 57.84375 -95.4453125 57.84375 -96.2578125 54.90625 C-96.5878125 54.90625 -96.9178125 54.90625 -97.2578125 54.90625 C-97.79443058 62.04625162 -97.26597361 67.81849226 -93.2578125 73.90625 C-89.96914627 77.39267567 -86.59004671 80.69102112 -81.67578125 81.14453125 C-69.16174121 81.4320364 -59.1701551 77.76959826 -48.2578125 71.90625 C-48.2578125 67.94625 -48.2578125 63.98625 -48.2578125 59.90625 C-49.05445313 60.25558594 -49.85109375 60.60492188 -50.671875 60.96484375 C-51.73148438 61.41988281 -52.79109375 61.87492187 -53.8828125 62.34375 C-54.92695312 62.79621094 -55.97109375 63.24867187 -57.046875 63.71484375 C-62.44944271 65.71944612 -67.40302331 66.02721724 -73.1328125 65.96875 C-74.28523438 65.95972656 -75.43765625 65.95070313 -76.625 65.94140625 C-77.49382812 65.92980469 -78.36265625 65.91820313 -79.2578125 65.90625 C-79.2578125 64.91625 -79.2578125 63.92625 -79.2578125 62.90625 C-81.7328125 62.41125 -81.7328125 62.41125 -84.2578125 61.90625 C-84.5878125 58.60625 -84.9178125 55.30625 -85.2578125 51.90625 C-85.5878125 51.90625 -85.9178125 51.90625 -86.2578125 51.90625 Z M40.7421875 54.90625 C41.7421875 56.90625 41.7421875 56.90625 41.7421875 56.90625 Z M-0.6953125 87.28125 C-3.13493626 89.10579912 -5.4545515 90.67281516 -8.2578125 91.90625 C-5.58118981 92.76276926 -3.74238384 92.87761507 -0.8828125 92.71875 C4.69089975 93.00704546 7.52867079 95.60171953 11.2421875 99.59375 C14.13045813 102.26540033 15.87899105 102.63672467 19.7421875 102.90625 C19.7421875 103.56625 19.7421875 104.22625 19.7421875 104.90625 C19.15840332 105.01171143 18.57461914 105.11717285 17.97314453 105.22583008 C15.27005702 105.71761589 12.56865436 106.21814125 9.8671875 106.71875 C8.949375 106.88439453 8.0315625 107.05003906 7.0859375 107.22070312 C-2.2553884 108.94662586 -2.2553884 108.94662586 -11.2578125 111.90625 C-11.5878125 112.56625 -11.9178125 113.22625 -12.2578125 113.90625 C2.08688874 118.72861543 21.62069533 123.83820344 36.7421875 120.90625 C39.60096018 119.2000101 39.60096018 119.2000101 41.7421875 116.90625 C42.11433127 112.06838104 40.61655575 109.37777754 37.6171875 105.78125 C32.01908899 99.88851472 25.73766761 96.25643599 18.59765625 92.46484375 C14.91792306 90.45634369 11.37712867 88.24980041 7.8359375 86.0078125 C4.16686072 84.07744001 2.3607291 84.92626026 -0.6953125 87.28125 Z M-50.1953125 93.34375 C-51.04617432 93.79387451 -51.89703613 94.24399902 -52.77368164 94.70776367 C-61.53136258 99.44283332 -70.43613992 104.6123603 -76.2578125 112.90625 C-76.84224213 116.03387267 -76.84224213 116.03387267 -76.2578125 118.90625 C-69.90058563 123.14440125 -61.42416356 120.76214273 -54.3125 119.34375 C-53.63445313 119.199375 -52.95640625 119.055 -52.2578125 118.90625 C-52.2578125 117.91625 -52.2578125 116.92625 -52.2578125 115.90625 C-52.9178125 115.57625 -53.5778125 115.24625 -54.2578125 114.90625 C-53.94540484 106.47124306 -50.39194408 100.54861914 -44.9453125 94.21875 C-40.91438659 92.25015828 -37.52945655 92.80217088 -33.2578125 93.90625 C-32.2678125 94.4425 -31.2778125 94.97875 -30.2578125 95.53125 C-26.06317869 97.4537905 -22.6970757 96.72504743 -18.2578125 95.90625 C-18.2578125 95.57625 -18.2578125 95.24625 -18.2578125 94.90625 C-19.11503906 94.72449219 -19.97226563 94.54273437 -20.85546875 94.35546875 C-26.99426669 93.00590212 -32.55032945 91.51184009 -38.2578125 88.90625 C-42.84697257 88.90625 -46.19682739 91.22449491 -50.1953125 93.34375 Z M-1.2578125 95.90625 C-1.2578125 96.56625 -1.2578125 97.22625 -1.2578125 97.90625 C1.5753037 99.53132196 1.5753037 99.53132196 4.7421875 100.90625 C5.7321875 100.57625 6.7221875 100.24625 7.7421875 99.90625 C3.64271446 96.76918483 3.64271446 96.76918483 -1.2578125 95.90625 Z M-43.3203125 98.40625 C-45.8165952 101.62725994 -47.89665999 105.04825946 -49.2578125 108.90625 C-48.9278125 109.56625 -48.5978125 110.22625 -48.2578125 110.90625 C-46.64960838 109.49416833 -45.04640542 108.07638964 -43.4453125 106.65625 C-42.10533203 105.47289063 -42.10533203 105.47289063 -40.73828125 104.265625 C-38.61653025 102.24745555 -36.91526827 100.30708295 -35.2578125 97.90625 C-36.29924124 96.66280686 -36.29924124 96.66280686 -38.5703125 96.59375 C-41.3153267 96.6901162 -41.3153267 96.6901162 -43.3203125 98.40625 Z M-27.2578125 101.90625 C-28.33160156 102.195 -29.40539062 102.48375 -30.51171875 102.78125 C-38.72931437 105.34139106 -42.59203706 109.90758684 -47.2578125 116.90625 C-39.74312787 116.4549718 -32.85528122 115.25064819 -25.6328125 113.15625 C-24.6929248 112.89183105 -23.75303711 112.62741211 -22.78466797 112.35498047 C-19.93885532 111.55048834 -17.09776488 110.7311696 -14.2578125 109.90625 C-13.37931641 109.65198242 -12.50082031 109.39771484 -11.59570312 109.13574219 C-6.80996979 107.74710704 -2.03112394 106.3369773 2.7421875 104.90625 C2.7421875 104.24625 2.7421875 103.58625 2.7421875 102.90625 C0.97463224 102.06598604 -0.79698513 101.23426278 -2.5703125 100.40625 C-3.55644531 99.9421875 -4.54257813 99.478125 -5.55859375 99 C-12.18223582 96.31603505 -20.59486698 100.09540336 -27.2578125 101.90625 Z " fill="#060203" transform="translate(100.2578125,12.09375)"/>
<path d="M0 0 C1.59526772 -0.0049926 1.59526772 -0.0049926 3.22276306 -0.01008606 C5.44529798 -0.01510418 7.66784029 -0.01749599 9.89038086 -0.01733398 C13.30008982 -0.01954601 16.70948762 -0.03782436 20.11914062 -0.05664062 C22.28775932 -0.0595705 24.45637953 -0.06155801 26.625 -0.0625 C28.15303001 -0.07327827 28.15303001 -0.07327827 29.71192932 -0.08427429 C30.65398727 -0.08119766 31.59604523 -0.07812103 32.56665039 -0.07495117 C33.80808556 -0.0770887 33.80808556 -0.0770887 35.07460022 -0.07926941 C37.21484375 0.16796875 37.21484375 0.16796875 40.21484375 2.16796875 C38.77202026 2.16011353 38.77202026 2.16011353 37.30004883 2.15209961 C33.66757164 2.13374408 30.03509838 2.12242732 26.40258789 2.11303711 C24.84235948 2.10806568 23.28213558 2.10128618 21.72192383 2.0925293 C13.12257995 2.04553835 4.64578621 2.18504015 -3.9284668 2.94311523 C-7.99056049 3.26284759 -12.02576764 3.27907715 -16.09765625 3.23046875 C-16.84982422 3.22595703 -17.60199219 3.22144531 -18.37695312 3.21679688 C-20.1797244 3.20531426 -21.98245311 3.18739908 -23.78515625 3.16796875 C-23.78515625 2.50796875 -23.78515625 1.84796875 -23.78515625 1.16796875 C-15.84090621 0.40309362 -7.97957497 0.0088757 0 0 Z " fill="#DB4967" transform="translate(76.78515625,68.83203125)"/>
<path d="M0 0 C0 0.99 0 1.98 0 3 C-24.77626887 4.19388403 -24.77626887 4.19388403 -36 4 C-36 3.34 -36 2.68 -36 2 C-30.18603806 1.20748972 -24.4217638 0.72597061 -18.5625 0.4375 C-17.76779297 0.39431641 -16.97308594 0.35113281 -16.15429688 0.30664062 C-10.76287196 0.03026978 -5.39837315 -0.03782644 0 0 Z " fill="#DF4B69" transform="translate(101,92)"/>
<path d="M0 0 C1.02574883 0.00212242 1.02574883 0.00212242 2.07221985 0.00428772 C4.25261847 0.00987749 6.43291376 0.02242803 8.61328125 0.03515625 C10.09309747 0.04017258 11.57291531 0.04473525 13.05273438 0.04882812 C16.67711682 0.05984354 20.30143895 0.07710113 23.92578125 0.09765625 C23.92578125 0.75765625 23.92578125 1.41765625 23.92578125 2.09765625 C12.57331887 2.96378417 1.30958309 3.21623752 -10.07421875 3.09765625 C-10.07421875 2.43765625 -10.07421875 1.77765625 -10.07421875 1.09765625 C-6.5359562 -0.0817646 -3.73273149 -0.01523564 0 0 Z " fill="#D54764" transform="translate(76.07421875,84.90234375)"/>
<path d="M0 0 C0 0.33 0 0.66 0 1 C-9.68662016 2.04518445 -19.27345227 2.10371911 -29 2 C-29 1.34 -29 0.68 -29 0 C-9.02764423 -1.95192308 -9.02764423 -1.95192308 0 0 Z " fill="#B53D55" transform="translate(82,70)"/>
<path d="M0 0 C2.97 0 5.94 0 9 0 C9 0.99 9 1.98 9 3 C5.04 3 1.08 3 -3 3 C-2.01 2.67 -1.02 2.34 0 2 C0 1.34 0 0.68 0 0 Z " fill="#BA3E57" transform="translate(92,92)"/>
<path d="M0 0 C1.65 0 3.3 0 5 0 C4.67 1.65 4.34 3.3 4 5 C2.68 4.67 1.36 4.34 0 4 C0 2.68 0 1.36 0 0 Z " fill="#000000" transform="translate(77,40)"/>
</svg>
