<?xml version="1.0" encoding="UTF-8"?>
<svg version="1.1" xmlns="http://www.w3.org/2000/svg" width="24" height="24">
<path d="M0 0 C3.70488428 0.92622107 5.16604069 1.67210485 8 4 C8.33 2.68 8.66 1.36 9 0 C12.03374276 0.61077564 14.2048142 1.55588672 16.75 3.3125 C17.67039062 3.92544922 17.67039062 3.92544922 18.609375 4.55078125 C20 6 20 6 20 10 C18.35546875 11.703125 18.35546875 11.703125 16.1875 13.25 C15.47980469 13.77078125 14.77210937 14.2915625 14.04296875 14.828125 C12 16 12 16 9 16 C8.67 14.68 8.34 13.36 8 12 C7.236875 12.66 6.47375 13.32 5.6875 14 C3 16 3 16 0 16 C0 10.72 0 5.44 0 0 Z " fill="#ABB7C1" transform="translate(2,4)"/>
</svg>
