<?xml version="1.0" encoding="UTF-8"?>
<svg version="1.1" xmlns="http://www.w3.org/2000/svg" width="24" height="24">
<path d="M0 0 C0.33 1.32 0.66 2.64 1 4 C1.763125 3.34 2.52625 2.68 3.3125 2 C6 0 6 0 9 0 C9 5.28 9 10.56 9 16 C5.29511572 15.07377893 3.83395931 14.32789515 1 12 C0.67 13.32 0.34 14.64 0 16 C-3.03374276 15.38922436 -5.2048142 14.44411328 -7.75 12.6875 C-8.36359375 12.27886719 -8.9771875 11.87023438 -9.609375 11.44921875 C-11 10 -11 10 -11 6 C-9.35546875 4.296875 -9.35546875 4.296875 -7.1875 2.75 C-6.47980469 2.22921875 -5.77210937 1.7084375 -5.04296875 1.171875 C-3 0 -3 0 0 0 Z " fill="#ABB7C1" transform="translate(13,4)"/>
</svg>
