<?xml version="1.0" encoding="UTF-8"?>
<svg version="1.1" xmlns="http://www.w3.org/2000/svg" width="28" height="28">
<path d="M0 0 C3.43536178 3.43536178 2.36910917 8.2807986 2.375 12.9375 C2.39949219 13.95263672 2.42398437 14.96777344 2.44921875 16.01367188 C2.45308594 16.98755859 2.45695312 17.96144531 2.4609375 18.96484375 C2.46915527 19.8580835 2.47737305 20.75132324 2.48583984 21.67163086 C2 24 2 24 0.16650391 25.82641602 C-2.88780886 27.48092148 -4.7251718 26.92549493 -8 26 C-11.43536178 22.56463822 -10.36910917 17.7192014 -10.375 13.0625 C-10.39949219 12.04736328 -10.42398437 11.03222656 -10.44921875 9.98632812 C-10.45308594 9.01244141 -10.45695313 8.03855469 -10.4609375 7.03515625 C-10.46915527 6.1419165 -10.47737305 5.24867676 -10.48583984 4.32836914 C-10 2 -10 2 -8.16650391 0.17358398 C-5.11219114 -1.48092148 -3.2748282 -0.92549493 0 0 Z " fill="#FFFFFF" transform="translate(26,1)"/>
<path d="M0 0 C3.43536178 3.43536178 2.36910917 8.2807986 2.375 12.9375 C2.39949219 13.95263672 2.42398437 14.96777344 2.44921875 16.01367188 C2.45308594 16.98755859 2.45695313 17.96144531 2.4609375 18.96484375 C2.46915527 19.8580835 2.47737305 20.75132324 2.48583984 21.67163086 C2 24 2 24 0.16650391 25.82641602 C-2.88780886 27.48092148 -4.7251718 26.92549493 -8 26 C-11.43536178 22.56463822 -10.36910917 17.7192014 -10.375 13.0625 C-10.39949219 12.04736328 -10.42398437 11.03222656 -10.44921875 9.98632812 C-10.45308594 9.01244141 -10.45695313 8.03855469 -10.4609375 7.03515625 C-10.46915527 6.1419165 -10.47737305 5.24867676 -10.48583984 4.32836914 C-10 2 -10 2 -8.16650391 0.17358398 C-5.11219114 -1.48092148 -3.2748282 -0.92549493 0 0 Z " fill="#FFFFFF" transform="translate(10,1)"/>
</svg>
