<?xml version="1.0" encoding="UTF-8"?>
<svg version="1.1" xmlns="http://www.w3.org/2000/svg" width="279" height="114">
<path d="M0 0 C0 0.99 0 1.98 0 3 C1.65 3 3.3 3 5 3 C6.47522426 7.64695642 5.41179883 11.44005207 4 16 C2.375 19.0625 2.375 19.0625 1 21 C1.99 21.0825 2.98 21.165 4 21.25 C10.22578341 22.14661384 16.03685788 25.04607236 20 30 C20 30.66 20 31.32 20 32 C20.64257751 31.99333817 21.28515503 31.98667633 21.94720459 31.97981262 C28.63044231 31.91348224 35.31358663 31.86820885 41.99707031 31.83520508 C44.49190061 31.82011145 46.98670435 31.79963452 49.48144531 31.77368164 C53.06582186 31.7373246 56.64984782 31.72027922 60.234375 31.70703125 C61.35116638 31.69154739 62.46795776 31.67606354 63.61859131 31.66011047 C64.65936829 31.65988388 65.70014526 31.65965729 66.77246094 31.65942383 C67.68735291 31.65276199 68.60224487 31.64610016 69.54486084 31.63923645 C72.48737371 32.07161576 73.85784864 32.96726125 76 35 C76.45410156 37.17651367 76.45410156 37.17651367 76.390625 39.66796875 C76.37773437 40.56064453 76.36484375 41.45332031 76.3515625 42.37304688 C76.30128906 43.76620117 76.30128906 43.76620117 76.25 45.1875 C76.23195312 46.12787109 76.21390625 47.06824219 76.1953125 48.03710938 C76.1481655 50.35909889 76.08238231 52.6790369 76 55 C77.65 55 79.3 55 81 55 C82.16819006 57.33638011 82.13268832 58.7233888 82.14526367 61.32617188 C82.15164352 62.22049927 82.15802338 63.11482666 82.16459656 64.03625488 C82.16626579 65.48783997 82.16626579 65.48783997 82.16796875 66.96875 C82.17129715 67.95999878 82.17462555 68.95124756 82.17805481 69.97253418 C82.18312293 72.07071467 82.18546317 74.16890324 82.18530273 76.26708984 C82.18749102 79.48678768 82.20565295 82.706144 82.22460938 85.92578125 C82.22754288 87.96093632 82.22952796 89.99609303 82.23046875 92.03125 C82.23765427 92.99897339 82.24483978 93.96669678 82.25224304 94.96374512 C82.24916641 95.85807251 82.24608978 96.7523999 82.24291992 97.67382812 C82.24434494 98.46277466 82.24576996 99.25172119 82.24723816 100.0645752 C82 102 82 102 80 104 C79.39688385 105.68761858 78.86149763 107.40014476 78.375 109.125 C78.11460937 110.03507812 77.85421875 110.94515625 77.5859375 111.8828125 C77.39257812 112.58148438 77.19921875 113.28015625 77 114 C76.01 113.67 75.02 113.34 74 113 C72.47839986 109.3962102 72 106.94779314 72 103 C22.005 103.495 22.005 103.495 -29 104 C-27.02 106.64 -25.04 109.28 -23 112 C-23 112.66 -23 113.32 -23 114 C-25.125 114 -25.125 114 -28 113 C-34 106.60655738 -34 106.60655738 -34 103 C-35.65 103 -37.3 103 -39 103 C-39.12375 104.0725 -39.2475 105.145 -39.375 106.25 C-39.89643936 109.37863615 -40.40088254 111.33480424 -42 114 C-42.66 114 -43.32 114 -44 114 C-44.99 112.02 -45.98 110.04 -47 108 C-47.763125 108.99 -48.52625 109.98 -49.3125 111 C-50.61328125 112.6875 -50.61328125 112.6875 -52 114 C-52.99 114 -53.98 114 -55 114 C-54.02003892 111.28626162 -53.15033127 109.18373822 -51.3125 106.9375 C-50.879375 106.298125 -50.44625 105.65875 -50 105 C-50.29709311 103.65812647 -50.63701175 102.32556721 -51 101 C-51.12070777 99.38784675 -51.19969468 97.77224987 -51.24609375 96.15625 C-51.29540039 94.78146484 -51.29540039 94.78146484 -51.34570312 93.37890625 C-51.4068972 91.45975588 -51.46418958 89.54047712 -51.51757812 87.62109375 C-51.56881836 86.24630859 -51.56881836 86.24630859 -51.62109375 84.84375 C-51.6461499 84.01037109 -51.67120605 83.17699219 -51.69702148 82.31835938 C-52.03212115 79.7542124 -52.54898144 78.14162918 -54 76 C-57.54588501 74.70079254 -57.54588501 74.70079254 -61 74 C-61 72.02 -61 70.04 -61 68 C-57.7 68 -54.4 68 -51 68 C-51.01160156 67.14535156 -51.02320313 66.29070312 -51.03515625 65.41015625 C-51.04417969 64.30542969 -51.05320312 63.20070312 -51.0625 62.0625 C-51.07410156 60.96035156 -51.08570313 59.85820313 -51.09765625 58.72265625 C-51 56 -51 56 -50 55 C-48.33382885 54.95936168 -46.66611905 54.957279 -45 55 C-45.02094727 54.40985107 -45.04189453 53.81970215 -45.06347656 53.21166992 C-45.14663683 50.53712001 -45.19865691 47.86284185 -45.25 45.1875 C-45.28351562 44.25873047 -45.31703125 43.32996094 -45.3515625 42.37304688 C-45.36445312 41.48037109 -45.37734375 40.58769531 -45.390625 39.66796875 C-45.41157227 38.84578857 -45.43251953 38.0236084 -45.45410156 37.17651367 C-45 35 -45 35 -43.24609375 33.24023438 C-40.84135401 31.91239982 -39.39422835 31.58550816 -36.671875 31.48828125 C-35.87265625 31.45283203 -35.0734375 31.41738281 -34.25 31.38085938 C-33.425 31.35830078 -32.6 31.33574219 -31.75 31.3125 C-30.90953125 31.27833984 -30.0690625 31.24417969 -29.203125 31.20898438 C-27.13587796 31.12676432 -25.06796126 31.06169843 -23 31 C-22.57654297 30.07574219 -22.57654297 30.07574219 -22.14453125 29.1328125 C-19.77712539 24.72119612 -15.65586622 22.47027354 -11 21 C-10.01 21 -9.02 21 -8 21 C-8 20.01 -8 19.02 -8 18 C-8.62261719 17.92523437 -9.24523437 17.85046875 -9.88671875 17.7734375 C-12 17 -12 17 -13.08203125 15.0390625 C-13.32308594 14.24242187 -13.56414062 13.44578125 -13.8125 12.625 C-14.06644531 11.83351563 -14.32039063 11.04203125 -14.58203125 10.2265625 C-15 8 -15 8 -14 5 C-13.34 5 -12.68 5 -12 5 C-12 4.01 -12 3.02 -12 2 C-10.56342755 1.66269158 -9.12569907 1.33030409 -7.6875 1 C-6.88699219 0.814375 -6.08648437 0.62875 -5.26171875 0.4375 C-3 0 -3 0 0 0 Z M-44 103 C-44.33 103.99 -44.66 104.98 -45 106 C-43.62831762 108.19038423 -43.62831762 108.19038423 -42 110 C-41.67 107.69 -41.34 105.38 -41 103 C-41.99 103 -42.98 103 -44 103 Z M73 103 C73.66 105.31 74.32 107.62 75 110 C77.35953094 107.64046906 77.49141413 106.22104383 78 103 C76.35 103 74.7 103 73 103 Z " fill="#E1A1B2" transform="translate(107,0)"/>
<path d="M0 0 C7.18987257 -0.0760222 14.3796416 -0.12858815 21.56982422 -0.16479492 C24.01615268 -0.1798877 26.46245407 -0.20036402 28.90869141 -0.22631836 C32.42357057 -0.26267918 35.93809218 -0.27972161 39.453125 -0.29296875 C40.5480426 -0.30845261 41.64296021 -0.32393646 42.77105713 -0.33988953 C43.79181335 -0.34011612 44.81256958 -0.34034271 45.86425781 -0.34057617 C47.20994843 -0.35056892 47.20994843 -0.35056892 48.58282471 -0.36076355 C51.50042938 0.07468911 52.87197113 0.98744792 55 3 C55.45410156 5.17651367 55.45410156 5.17651367 55.390625 7.66796875 C55.37773437 8.56064453 55.36484375 9.45332031 55.3515625 10.37304688 C55.31804687 11.30181641 55.28453125 12.23058594 55.25 13.1875 C55.23195313 14.12787109 55.21390625 15.06824219 55.1953125 16.03710938 C55.1481655 18.35909889 55.08238231 20.6790369 55 23 C56.65 23 58.3 23 60 23 C59.67 38.18 59.34 53.36 59 69 C55.37 69 51.74 69 48 69 C48.00785522 67.00851929 48.00785522 67.00851929 48.01586914 64.97680664 C48.03391426 60.06991241 48.04543021 55.16302113 48.05493164 50.25610352 C48.05997298 48.12881986 48.06680591 46.00153969 48.07543945 43.87426758 C48.08751379 40.82372174 48.09323014 37.77322155 48.09765625 34.72265625 C48.10539818 33.28672874 48.10539818 33.28672874 48.11329651 31.8217926 C48.11340981 30.50053627 48.11340981 30.50053627 48.11352539 29.15258789 C48.115746 28.37315323 48.11796661 27.59371857 48.12025452 26.79066467 C48.19571386 24.97633465 48.19571386 24.97633465 47 24 C47 27.96 47 31.92 47 36 C46.29875 35.34 45.5975 34.68 44.875 34 C41.49736169 31.65033857 40.02695637 31.31456062 36 32 C33.47993156 33.43661311 33.47993156 33.43661311 32 36 C31.93514094 38.33243172 31.92924298 40.66773975 32 43 C26.80388779 43.04947953 21.60791309 43.08575727 16.41162109 43.10986328 C14.64434418 43.11991384 12.87708387 43.13355642 11.10986328 43.15087891 C8.56799215 43.17516885 6.02634111 43.18649255 3.484375 43.1953125 C2.30134796 43.21079636 2.30134796 43.21079636 1.09442139 43.22659302 C-2.81869936 43.22739133 -5.64070602 43.05774077 -9 41 C-12 40.41666667 -12 40.41666667 -15 41 C-17.40406384 43.37842577 -17.40406384 43.37842577 -19 46 C-23.57399709 45.21511292 -27.90157509 43.84473878 -32.3125 42.4375 C-33.42334961 42.08655273 -33.42334961 42.08655273 -34.55664062 41.72851562 C-36.37183405 41.15468028 -38.18602006 40.57765989 -40 40 C-40 39.01 -40 38.02 -40 37 C-40.90492187 37.05220703 -40.90492187 37.05220703 -41.828125 37.10546875 C-45.36644251 37.22531499 -48.23818445 37.29729387 -51.5625 36 C-53.95372736 32.67307498 -53.44721912 30.02497212 -53 26 C-52.01 25.34 -51.02 24.68 -50 24 C-49.27617533 21.94074861 -49.27617533 21.94074861 -49 20 C-46.69 20 -44.38 20 -42 20 C-41.67 21.65 -41.34 23.3 -41 25 C-40.34 25 -39.68 25 -39 25 C-39 25.66 -39 26.32 -39 27 C-29.43 27 -19.86 27 -10 27 C-10.66 27.99 -11.32 28.98 -12 30 C-11.21625 29.505 -10.4325 29.01 -9.625 28.5 C-7 27 -7 27 -5 27 C-5 23.7 -5 20.4 -5 17 C-4.21625 16.7525 -3.4325 16.505 -2.625 16.25 C0.03842531 15.23091016 0.03842531 15.23091016 1.3125 13.25 C2.82987216 8.28405473 1.98459788 4.65435454 0 0 Z " fill="#F7D1AF" transform="translate(128,32)"/>
<path d="M0 0 C0.99 0.495 0.99 0.495 2 1 C1.67 15.52 1.34 30.04 1 45 C4.63 45 8.26 45 12 45 C12 30.81 12 16.62 12 2 C12.66 1.67 13.32 1.34 14 1 C14.0505963 7.37203593 14.08568957 13.7440203 14.10986328 20.11621094 C14.11993789 22.28517594 14.13359798 24.45412731 14.15087891 26.62304688 C14.17506323 29.73571126 14.18646832 32.84819651 14.1953125 35.9609375 C14.20563507 36.934935 14.21595764 37.9089325 14.22659302 38.91244507 C14.22674408 39.81322784 14.22689514 40.71401062 14.22705078 41.64208984 C14.231492 42.43706879 14.23593323 43.23204773 14.24050903 44.05111694 C14 46 14 46 12 48 C11.39688385 49.68761858 10.86149763 51.40014476 10.375 53.125 C10.11460937 54.03507812 9.85421875 54.94515625 9.5859375 55.8828125 C9.39257812 56.58148438 9.19921875 57.28015625 9 58 C7.515 57.505 7.515 57.505 6 57 C4.47839986 53.3962102 4 50.94779314 4 47 C-45.995 47.495 -45.995 47.495 -97 48 C-95.02 50.64 -93.04 53.28 -91 56 C-91 56.66 -91 57.32 -91 58 C-93.125 58 -93.125 58 -96 57 C-102 50.60655738 -102 50.60655738 -102 47 C-103.65 47 -105.3 47 -107 47 C-107.12375 48.0725 -107.2475 49.145 -107.375 50.25 C-107.89643936 53.37863615 -108.40088254 55.33480424 -110 58 C-110.66 58 -111.32 58 -112 58 C-113.60355101 54.49223216 -114.22036864 51.85645121 -114 48 C-113.01 49.32 -112.02 50.64 -111 52 C-110.34 50.35 -109.68 48.7 -109 47 C-109.99 47 -110.98 47 -112 47 C-112 46.34 -112 45.68 -112 45 C-110.02 45 -108.04 45 -106 45 C-106.24383721 40.85476747 -106.46619362 38.60794616 -109.25 35.4375 C-110.1575 34.633125 -111.065 33.82875 -112 33 C-113.90057835 31.06925374 -115.39677327 29.21622519 -117 27 C-116.6328125 24.81640625 -116.6328125 24.81640625 -116 23 C-115.66427979 23.86334961 -115.32855957 24.72669922 -114.98266602 25.61621094 C-112.83309688 29.65811577 -111.0119816 32.66241334 -107 35 C-98.24497702 37.01441942 -88.8174826 35.79148356 -79.9375 35.25 C-77.42536658 35.14151599 -74.9129865 35.03859203 -72.40039062 34.94140625 C-66.26220354 34.69187783 -60.13227032 34.36648423 -54 34 C-53.67 29.71 -53.34 25.42 -53 21 C-56.63 20.67 -60.26 20.34 -64 20 C-63.34 18.68 -62.68 17.36 -62 16 C-56.42896175 15.74677099 -56.42896175 15.74677099 -54.31347656 16.99560547 C-50.86231219 18.49392651 -47.42968288 18.24505759 -43.734375 18.1953125 C-42.54427826 18.19106766 -42.54427826 18.19106766 -41.33013916 18.18673706 C-38.80327083 18.17556779 -36.27676068 18.15046944 -33.75 18.125 C-32.0338593 18.11496598 -30.31771302 18.10584087 -28.6015625 18.09765625 C-24.40090426 18.07563914 -20.2005128 18.04113187 -16 18 C-16.04382813 17.06929687 -16.08765625 16.13859375 -16.1328125 15.1796875 C-16 12 -16 12 -13.875 9.125 C-11 7 -11 7 -7.9375 6.5 C-5 7 -5 7 -1 10 C-0.67 6.7 -0.34 3.4 0 0 Z M5 47 C5.66 49.31 6.32 51.62 7 54 C9.35953094 51.64046906 9.49141413 50.22104383 10 47 C8.35 47 6.7 47 5 47 Z " fill="#91AD92" transform="translate(175,56)"/>
<path d="M0 0 C0.54344597 14.37112681 -0.48829209 27.82204007 -9 40 C-11.77871875 42.71409739 -13.35230729 43.78410243 -17 45 C-15.35 45.33 -13.7 45.66 -12 46 C-11.9010789 50.21746325 -11.82850988 54.43431121 -11.78027344 58.65258789 C-11.76016475 60.08727786 -11.73287327 61.52188593 -11.69824219 62.95629883 C-11.6496854 65.01924839 -11.62702594 67.08111431 -11.609375 69.14453125 C-11.58842773 70.38565674 -11.56748047 71.62678223 -11.54589844 72.90551758 C-12 76 -12 76 -13.76049805 77.90356445 C-16.13308092 79.06515496 -17.59856783 79.38600247 -20.22265625 79.3984375 C-21.00833984 79.40230469 -21.79402344 79.40617187 -22.60351562 79.41015625 C-23.41498047 79.39855469 -24.22644531 79.38695313 -25.0625 79.375 C-25.87783203 79.38660156 -26.69316406 79.39820312 -27.53320312 79.41015625 C-28.31759766 79.40628906 -29.10199219 79.40242188 -29.91015625 79.3984375 C-30.62308838 79.39505371 -31.33602051 79.39166992 -32.07055664 79.38818359 C-34.54956673 78.88943299 -35.4205738 77.93378653 -37 76 C-38.38308781 73.23382437 -38.11210196 70.98982 -38.09765625 67.8984375 C-38.09443359 66.68671875 -38.09121094 65.475 -38.08789062 64.2265625 C-38.07951172 62.95554688 -38.07113281 61.68453125 -38.0625 60.375 C-38.05798828 59.09625 -38.05347656 57.8175 -38.04882812 56.5 C-38.03701203 53.33328708 -38.02053815 50.16666644 -38 47 C-36.68 46.34 -35.36 45.68 -34 45 C-34.763125 44.21625 -35.52625 43.4325 -36.3125 42.625 C-42.46806379 35.14415902 -42.57832968 25.27674713 -43 16 C-38.93774452 16.57823096 -36.15237654 17.89117737 -32.6875 20.0625 C-31.80449219 20.61035156 -30.92148438 21.15820312 -30.01171875 21.72265625 C-29.01591797 22.35494141 -29.01591797 22.35494141 -28 23 C-27.68289062 22.45472656 -27.36578125 21.90945312 -27.0390625 21.34765625 C-21.6648314 12.66278003 -11.21124824 0 0 0 Z M-25 42 C-25.66 43.32 -26.32 44.64 -27 46 C-25.68 46 -24.36 46 -23 46 C-23.33 44.68 -23.66 43.36 -24 42 C-24.33 42 -24.66 42 -25 42 Z " fill="#80B89B" transform="translate(233,35)"/>
<path d="M0 0 C0 0.99 0 1.98 0 3 C1.65 3 3.3 3 5 3 C6.47522426 7.64695642 5.41179883 11.44005207 4 16 C2.375 19.0625 2.375 19.0625 1 21 C1.99 21.0825 2.98 21.165 4 21.25 C9.82730571 22.11112007 14.93952522 24.4248447 18.8125 28.9375 C19.534375 29.948125 20.25625 30.95875 21 32 C21.598125 32.825 22.19625 33.65 22.8125 34.5 C24.29589842 37.62294405 24.42808101 39.57535188 24 43 C22.8125 45.8125 22.8125 45.8125 21 48 C18.3125 48.8125 18.3125 48.8125 16 49 C16 52.3 16 55.6 16 59 C10.7265625 62.22265625 10.7265625 62.22265625 9 63 C8.01 62.505 8.01 62.505 7 62 C7.99 61.34 8.98 60.68 10 60 C-3.86 59.505 -3.86 59.505 -18 59 C-18 58.34 -18 57.68 -18 57 C-19.485 57.495 -19.485 57.495 -21 58 C-21 56.35 -21 54.7 -21 53 C-23.31 52.67 -25.62 52.34 -28 52 C-28.33 53.32 -28.66 54.64 -29 56 C-29.14715692 48.6094524 -28.70776992 41.35575165 -28 34 C-27.01 34.33 -26.02 34.66 -25 35 C-24.814375 34.13375 -24.62875 33.2675 -24.4375 32.375 C-22.19117311 27.10101514 -18.31832487 24.15916244 -13.25 21.625 C-11 21 -11 21 -8 21 C-8 20.01 -8 19.02 -8 18 C-8.62261719 17.92523437 -9.24523437 17.85046875 -9.88671875 17.7734375 C-12 17 -12 17 -13.08203125 15.0390625 C-13.32308594 14.24242187 -13.56414062 13.44578125 -13.8125 12.625 C-14.06644531 11.83351563 -14.32039063 11.04203125 -14.58203125 10.2265625 C-15 8 -15 8 -14 5 C-13.34 5 -12.68 5 -12 5 C-12 4.01 -12 3.02 -12 2 C-10.56342755 1.66269158 -9.12569907 1.33030409 -7.6875 1 C-6.48673828 0.7215625 -6.48673828 0.7215625 -5.26171875 0.4375 C-3 0 -3 0 0 0 Z " fill="#E8B88D" transform="translate(107,0)"/>
<path d="M0 0 C34.32 0 68.64 0 104 0 C104 3.3 104 6.6 104 10 C100.59680029 11.70159986 96.71060022 11.20272069 92.96386719 11.24047852 C91.55874123 11.25997307 91.55874123 11.25997307 90.12522888 11.27986145 C80.32926522 11.40656251 70.53243863 11.46331603 60.73583984 11.51489258 C56.08529277 11.54165867 51.43576766 11.5904174 46.78564453 11.65844727 C41.17464005 11.740329 35.56461058 11.78306615 29.95304108 11.79795647 C27.81432076 11.81021587 25.67563326 11.83627536 23.53725433 11.87640572 C20.54157922 11.92981291 17.54976054 11.93288018 14.55371094 11.92407227 C13.67140305 11.95126343 12.78909515 11.97845459 11.88005066 12.00646973 C8.13594987 11.94976353 5.90586682 11.80390822 3.04206085 9.26243401 C1.40697772 7.21319557 0.05083035 5.40357768 -1 3 C-0.67 2.01 -0.34 1.02 0 0 Z " fill="#F7D1AF" transform="translate(71,92)"/>
<path d="M0 0 C2.31 0 4.62 0 7 0 C7.33 1.65 7.66 3.3 8 5 C8.66 5 9.32 5 10 5 C10 5.66 10 6.32 10 7 C19.57 7 29.14 7 39 7 C38.34 7.99 37.68 8.98 37 10 C37.4846875 9.6390625 37.969375 9.278125 38.46875 8.90625 C43.57205524 5.37319253 46.79093406 4.15809275 53 5 C55.0625 6.0625 55.0625 6.0625 56 8 C56.4375 11.3125 56.4375 11.3125 55 15 C48.97067761 19.43247136 43.26627349 21.51171026 35.84765625 20.87890625 C33.62550325 20.82351621 33.62550325 20.82351621 31.4375 23.5 C30.963125 24.325 30.48875 25.15 30 26 C25.42600291 25.21511292 21.09842491 23.84473878 16.6875 22.4375 C15.94693359 22.20353516 15.20636719 21.96957031 14.44335938 21.72851562 C12.62816595 21.15468028 10.81397994 20.57765989 9 20 C9 19.01 9 18.02 9 17 C8.09507813 17.05220703 8.09507813 17.05220703 7.171875 17.10546875 C3.63355749 17.22531499 0.76181555 17.29729387 -2.5625 16 C-4.95372736 12.67307498 -4.44721912 10.02497212 -4 6 C-3.01 5.34 -2.02 4.68 -1 4 C-0.27617533 1.94074861 -0.27617533 1.94074861 0 0 Z " fill="#EDEAEA" transform="translate(79,52)"/>
<path d="M0 0 C1.5631897 0.00785522 1.5631897 0.00785522 3.15795898 0.01586914 C4.28266602 0.0190918 5.40737305 0.02231445 6.56616211 0.02563477 C7.75016602 0.03401367 8.93416992 0.04239258 10.15405273 0.05102539 C11.34192383 0.05553711 12.52979492 0.06004883 13.75366211 0.06469727 C16.69967499 0.07652864 19.64558954 0.09301252 22.59155273 0.11352539 C22.69047384 4.33098864 22.76304286 8.5478366 22.8112793 12.76611328 C22.83138798 14.20080325 22.85867946 15.63541132 22.89331055 17.06982422 C22.94186734 19.13277378 22.96452679 21.1946397 22.98217773 23.25805664 C23.003125 24.49918213 23.02407227 25.74030762 23.0456543 27.01904297 C22.59155273 30.11352539 22.59155273 30.11352539 20.83105469 32.01708984 C18.45847181 33.17868035 16.9929849 33.49952786 14.36889648 33.51196289 C13.58321289 33.51583008 12.7975293 33.51969727 11.98803711 33.52368164 C11.17657227 33.51208008 10.36510742 33.50047852 9.52905273 33.48852539 C8.30605469 33.50592773 8.30605469 33.50592773 7.05834961 33.52368164 C6.27395508 33.51981445 5.48956055 33.51594727 4.68139648 33.51196289 C3.96846436 33.5085791 3.25553223 33.50519531 2.52099609 33.50170898 C0.041986 33.00295838 -0.82902107 32.04731192 -2.40844727 30.11352539 C-3.78522206 27.35997579 -3.53814415 25.1251213 -3.54125977 22.04711914 C-3.54254883 20.83991211 -3.54383789 19.63270508 -3.54516602 18.38891602 C-3.53936523 16.48916016 -3.53936523 16.48916016 -3.53344727 14.55102539 C-3.53731445 13.2806543 -3.54118164 12.0102832 -3.54516602 10.70141602 C-3.54387695 9.49549805 -3.54258789 8.28958008 -3.54125977 7.04711914 C-3.54013184 5.93393311 -3.53900391 4.82074707 -3.5378418 3.67382812 C-3.36847636 0.32262931 -3.34102399 0.15748364 0 0 Z " fill="#D296A8" transform="translate(198.408447265625,80.886474609375)"/>
<path d="M0 0 C1.11283607 -0.00287018 1.11283607 -0.00287018 2.24815369 -0.00579834 C3.81233053 -0.00715619 5.37651879 -0.00348768 6.94067383 0.00488281 C9.33505507 0.01560356 11.72868865 0.00496659 14.12304688 -0.0078125 C15.6445329 -0.00649113 17.16601847 -0.00392921 18.6875 0 C19.40317642 -0.00404846 20.11885284 -0.00809692 20.85621643 -0.01226807 C24.54915939 0.02260702 26.12050426 0.16106534 29.27734375 2.265625 C33.13726202 2.5173588 36.51367738 2.06301194 40.27734375 1.265625 C40.30420313 3.41139137 40.32367463 5.55725145 40.33984375 7.703125 C40.35144531 8.89808594 40.36304688 10.09304687 40.375 11.32421875 C40.27734375 14.265625 40.27734375 14.265625 39.27734375 15.265625 C37.71735327 15.36409467 36.15293831 15.39361118 34.58984375 15.39501953 C33.59210938 15.39817169 32.594375 15.40132385 31.56640625 15.40457153 C30.48101562 15.4025473 29.395625 15.40052307 28.27734375 15.3984375 C27.17132813 15.39939423 26.0653125 15.40035095 24.92578125 15.40133667 C22.58203067 15.40201867 20.23827822 15.40016304 17.89453125 15.39599609 C14.29292587 15.39064814 10.69144522 15.39594047 7.08984375 15.40234375 C4.81901014 15.40168297 2.54817661 15.40040182 0.27734375 15.3984375 C-0.80804688 15.40046173 -1.8934375 15.40248596 -3.01171875 15.40457153 C-4.00945312 15.40141937 -5.0071875 15.39826721 -6.03515625 15.39501953 C-6.91816406 15.39422394 -7.80117187 15.39342834 -8.7109375 15.39260864 C-10.72265625 15.265625 -10.72265625 15.265625 -11.72265625 14.265625 C-11.79509678 12.24598301 -11.80642813 10.22395376 -11.78515625 8.203125 C-11.77613281 7.09839844 -11.76710938 5.99367188 -11.7578125 4.85546875 C-11.74621094 4.00082031 -11.73460938 3.14617187 -11.72265625 2.265625 C-7.99130609 -0.15269816 -4.29498195 -0.02436491 0 0 Z " fill="#F6D0AE" transform="translate(134.72265625,75.734375)"/>
<path d="M0 0 C0.60328125 0.22816406 1.2065625 0.45632812 1.828125 0.69140625 C2.62734375 0.97886719 3.4265625 1.26632813 4.25 1.5625 C5.03890625 1.85253906 5.8278125 2.14257812 6.640625 2.44140625 C9.26460888 3.06264747 10.45956514 2.76362777 13 2 C14.51876954 1.91050578 16.04110471 1.86985145 17.5625 1.875 C18.70912109 1.87113281 18.70912109 1.87113281 19.87890625 1.8671875 C22 2 22 2 25 3 C25.02685938 5.14576637 25.04633088 7.29162645 25.0625 9.4375 C25.07410156 10.63246094 25.08570313 11.82742187 25.09765625 13.05859375 C25 16 25 16 24 17 C22.4651703 17.09319449 20.92607918 17.117458 19.38842773 17.11352539 C18.40748642 17.11344986 17.4265451 17.11337433 16.4158783 17.11329651 C15.3492244 17.10813522 14.2825705 17.10297394 13.18359375 17.09765625 C11.55430687 17.09553383 11.55430687 17.09553383 9.8921051 17.09336853 C6.40720925 17.08775048 2.92237658 17.07519492 -0.5625 17.0625 C-2.91861887 17.05748733 -5.27473874 17.05292402 -7.63085938 17.04882812 C-13.42059464 17.03777519 -19.21029281 17.02101951 -25 17 C-23.77036997 11.89859819 -22.35286696 8.20845123 -18 5 C-12.19513806 3.13984023 -6.03934061 2.60773239 0 2 C0 1.34 0 0.68 0 0 Z " fill="#F4D0AF" transform="translate(97,74)"/>
<path d="M0 0 C-0.33 1.32 -0.66 2.64 -1 4 C-1.66 4 -2.32 4 -3 4 C-3.0501123 4.6612085 -3.10022461 5.32241699 -3.15185547 6.00366211 C-3.38311178 8.98246362 -3.62885608 11.95989335 -3.875 14.9375 C-3.99294922 16.49887695 -3.99294922 16.49887695 -4.11328125 18.09179688 C-4.23896484 19.57583008 -4.23896484 19.57583008 -4.3671875 21.08984375 C-4.47716064 22.46450806 -4.47716064 22.46450806 -4.58935547 23.86694336 C-4.72486816 24.57085205 -4.86038086 25.27476074 -5 26 C-5.66 26.33 -6.32 26.66 -7 27 C-7.061875 28.258125 -7.12375 29.51625 -7.1875 30.8125 C-7.22230469 31.52019531 -7.25710937 32.22789063 -7.29296875 32.95703125 C-7.14285448 35.45671716 -7.14285448 35.45671716 -4 38 C-6.97 38 -9.94 38 -13 38 C-13 34.7 -13 31.4 -13 28 C-12.34 27.67 -11.68 27.34 -11 27 C-14.44450737 24.70366176 -16.93812283 24.45983515 -21 24 C-21.11608726 20.72946483 -21.18720711 17.4594582 -21.25 14.1875 C-21.28351562 13.25873047 -21.31703125 12.32996094 -21.3515625 11.37304688 C-21.36445312 10.48037109 -21.37734375 9.58769531 -21.390625 8.66796875 C-21.41157227 7.84578857 -21.43251953 7.0236084 -21.45410156 6.17651367 C-21 4 -21 4 -19.18481445 2.24023438 C-16.10817184 0.49374377 -13.45102566 0.47875516 -9.9375 0.3125 C-8.70902344 0.24675781 -7.48054688 0.18101563 -6.21484375 0.11328125 C-4.14417017 0.04031705 -2.07195869 0 0 0 Z " fill="#F7D1AD" transform="translate(83,31)"/>
<path d="M0 0 C6.33239555 0.96992678 11.47377457 4.05670905 15.65625 8.9296875 C18.46523723 13.12683702 20 16.86010829 20 22 C19.21472994 24.51879076 18.20726339 26.63376376 17 29 C17.99 29.33 18.98 29.66 20 30 C20.38091797 28.28103516 20.38091797 28.28103516 20.76953125 26.52734375 C21.11683806 24.99731647 21.46451401 23.46737295 21.8125 21.9375 C21.97814453 21.18533203 22.14378906 20.43316406 22.31445312 19.65820312 C23.42439454 14.82053394 24.91211378 10.50480895 27 6 C28.36605568 10.09816705 26.95552417 12.9471228 25.625 16.875 C23.47345737 23.34604936 23.47345737 23.34604936 22 30 C23.98 30 25.96 30 28 30 C28 30.33 28 30.66 28 31 C12.04332328 32.20427749 12.04332328 32.20427749 7.57421875 29.5703125 C5.91717825 27.43799682 4.94802674 25.52669735 4 23 C3.68289062 22.24074219 3.36578125 21.48148438 3.0390625 20.69921875 C0.64899106 14.00044055 0.32066136 7.05454989 0 0 Z " fill="#597F6C" transform="translate(190,51)"/>
<path d="M0 0 C1.485 0.99 1.485 0.99 3 2 C3.33 1.34 3.66 0.68 4 0 C7.96 0 11.92 0 16 0 C16 5.61 16 11.22 16 17 C12.20379845 15.73459948 11.51321812 14.21781569 9.3125 10.9375 C8.37857422 9.55884766 8.37857422 9.55884766 7.42578125 8.15234375 C6.95527344 7.44207031 6.48476563 6.73179688 6 6 C6.89322551 10.46612757 9.09058537 13.55775652 12 17 C12.763125 17.495 13.52625 17.99 14.3125 18.5 C16 20 16 20 16.25 23.6875 C16.1675 24.780625 16.085 25.87375 16 27 C14.02 27 12.04 27 10 27 C10 27.99 10 28.98 10 30 C9.34 30 8.68 30 8 30 C7.7525 30.721875 7.505 31.44375 7.25 32.1875 C5.86858872 35.29567538 4.33146746 37.52723148 2 40 C1.01 40 0.02 40 -1 40 C-0.02003892 37.28626162 0.84966873 35.18373822 2.6875 32.9375 C3.120625 32.298125 3.55375 31.65875 4 31 C3.70358981 29.65797545 3.36366965 28.32538043 3 27 C2.87939813 25.41131206 2.80034223 23.81914465 2.75390625 22.2265625 C2.72103516 21.3190625 2.68816406 20.4115625 2.65429688 19.4765625 C2.59335413 17.58344734 2.53603156 15.69021201 2.48242188 13.796875 C2.2964177 8.84144296 1.92046358 4.64954341 0 0 Z " fill="#F5CBAD" transform="translate(53,74)"/>
<path d="M0 0 C6.59229145 -0.7013076 10.49376557 1.50397814 16 5 C16 5.33 16 5.66 16 6 C14.35 6 12.7 6 11 6 C11.495 11.94 11.495 11.94 12 18 C28.83 18 45.66 18 63 18 C63 18.66 63 19.32 63 20 C11.52 20.495 11.52 20.495 -41 21 C-39.13824259 25.66692745 -39.13824259 25.66692745 -36.3984375 29.48046875 C-35.90859375 30.08697266 -35.41875 30.69347656 -34.9140625 31.31835938 C-34.40617187 31.93517578 -33.89828125 32.55199219 -33.375 33.1875 C-28 39.73828125 -28 39.73828125 -28 42 C-30.125 42 -30.125 42 -33 41 C-39 34.60655738 -39 34.60655738 -39 31 C-40.65 31 -42.3 31 -44 31 C-44.12375 32.0725 -44.2475 33.145 -44.375 34.25 C-44.89643936 37.37863615 -45.40088254 39.33480424 -47 42 C-47.66 42 -48.32 42 -49 42 C-50.60355101 38.49223216 -51.22036864 35.85645121 -51 32 C-50.01 33.32 -49.02 34.64 -48 36 C-47.34 34.35 -46.68 32.7 -46 31 C-46.99 31 -47.98 31 -49 31 C-49 30.34 -49 29.68 -49 29 C-47.02 29 -45.04 29 -43 29 C-43.24383721 24.85476747 -43.46619362 22.60794616 -46.25 19.4375 C-47.1575 18.633125 -48.065 17.82875 -49 17 C-50.90057835 15.06925374 -52.39677327 13.21622519 -54 11 C-53.6328125 8.81640625 -53.6328125 8.81640625 -53 7 C-52.66427979 7.86334961 -52.32855957 8.72669922 -51.98266602 9.61621094 C-49.83309688 13.65811577 -48.0119816 16.66241334 -44 19 C-35.24497702 21.01441942 -25.8174826 19.79148356 -16.9375 19.25 C-14.42536658 19.14151599 -11.9129865 19.03859203 -9.40039062 18.94140625 C-3.26220354 18.69187783 2.86772968 18.36648423 9 18 C9.495 11.565 9.495 11.565 10 5 C4.555 4.505 4.555 4.505 -1 4 C-0.67 2.68 -0.34 1.36 0 0 Z " fill="#C09294" transform="translate(112,72)"/>
<path d="M0 0 C0 0.99 0 1.98 0 3 C1.65 3 3.3 3 5 3 C6.00796724 6.16069729 5.97083624 8.33511958 5.25 11.5625 C5.01023437 12.70912109 5.01023437 12.70912109 4.765625 13.87890625 C3.8837283 16.32212007 3.07791005 17.44888405 1 19 C-8.16521739 19.73913043 -8.16521739 19.73913043 -12 17 C-14.04314569 12.86600872 -15.48780776 9.46342328 -14 5 C-13.34 5 -12.68 5 -12 5 C-12 4.01 -12 3.02 -12 2 C-10.56342755 1.66269158 -9.12569907 1.33030409 -7.6875 1 C-6.88699219 0.814375 -6.08648437 0.62875 -5.26171875 0.4375 C-3 0 -3 0 0 0 Z " fill="#020100" transform="translate(107,0)"/>
<path d="M0 0 C0.66 0 1.32 0 2 0 C2 1.65 2 3.3 2 5 C2.56962967 4.99777939 3.13925934 4.99555878 3.72615051 4.99327087 C9.64693577 4.97117275 15.56770934 4.95607441 21.48852539 4.94506836 C23.69914221 4.940035 25.90975569 4.93320783 28.12036133 4.92456055 C31.295093 4.91245141 34.46978072 4.90676175 37.64453125 4.90234375 C39.13059624 4.89460182 39.13059624 4.89460182 40.64668274 4.88670349 C41.56741074 4.88662796 42.48813873 4.88655243 43.43676758 4.88647461 C44.65255241 4.88314369 44.65255241 4.88314369 45.89289856 4.87974548 C48 5 48 5 51 6 C51.495 7.485 51.495 7.485 52 9 C50.69804688 9.12375 49.39609375 9.2475 48.0546875 9.375 C38.73179439 10.12738912 38.73179439 10.12738912 30.4375 13.875 C28.26708651 16.82676234 27.1547963 19.53561109 26 23 C24.68 23.33 23.36 23.66 22 24 C22.33 18.06 22.66 12.12 23 6 C19.04 6 15.08 6 11 6 C10.67 6.99 10.34 7.98 10 9 C9.01 8.34 8.02 7.68 7 7 C5.00039988 6.960008 2.99952758 6.95653201 1 7 C0 6 0 6 -0.0625 2.9375 C-0.041875 1.968125 -0.02125 0.99875 0 0 Z " fill="#D0AD97" transform="translate(46,68)"/>
<path d="M0 0 C0.33 0.66 0.66 1.32 1 2 C1.66 2 2.32 2 3 2 C3 2.66 3 3.32 3 4 C4.134375 3.814375 5.26875 3.62875 6.4375 3.4375 C8.2009375 3.2209375 8.2009375 3.2209375 10 3 C11.58272601 4.58272601 11.34735747 6.38034003 11.5625 8.5625 C11.64628906 9.38878906 11.73007813 10.21507812 11.81640625 11.06640625 C11.87699219 11.70449219 11.93757813 12.34257813 12 13 C6.7265625 16.22265625 6.7265625 16.22265625 5 17 C4.34 16.67 3.68 16.34 3 16 C3.99 15.34 4.98 14.68 6 14 C-7.86 13.505 -7.86 13.505 -22 13 C-21.67 11.68 -21.34 10.36 -21 9 C-20.30132812 9.02320313 -19.60265625 9.04640625 -18.8828125 9.0703125 C-17.51769531 9.09738281 -17.51769531 9.09738281 -16.125 9.125 C-15.22007813 9.14820313 -14.31515625 9.17140625 -13.3828125 9.1953125 C-10.81193006 9.24324836 -10.81193006 9.24324836 -9 7 C-7.01178687 6.60235737 -5.01055661 6.26224651 -3 6 C-3 5.34 -3 4.68 -3 4 C-2.34 4 -1.68 4 -1 4 C-0.67 2.68 -0.34 1.36 0 0 Z " fill="#EABE99" transform="translate(111,46)"/>
<path d="M0 0 C0.33 0.99 0.66 1.98 1 3 C1.66 3.33 2.32 3.66 3 4 C3.33 4.33 3.66 4.66 4 5 C4.33 5 4.66 5 5 5 C5 7.64 5 10.28 5 13 C-0.75 16 -0.75 16 -3 16 C-3 15.34 -3 14.68 -3 14 C-3.66 14 -4.32 14 -5 14 C-5.33 15.98 -5.66 17.96 -6 20 C-6.33 18.68 -6.66 17.36 -7 16 C-7.33 16.66 -7.66 17.32 -8 18 C-11.3 18 -14.6 18 -18 18 C-18 16.35 -18 14.7 -18 13 C-15.5 11.1875 -15.5 11.1875 -13 10 C-13 10.66 -13 11.32 -13 12 C-12.071875 11.7215625 -12.071875 11.7215625 -11.125 11.4375 C-9 11 -9 11 -7 12 C-7.57452746 8.06924356 -7.57452746 8.06924356 -10 5 C-8.081875 4.87625 -8.081875 4.87625 -6.125 4.75 C-3.94666582 4.54130069 -3.94666582 4.54130069 -2 4 C-0.4100567 2.07935207 -0.4100567 2.07935207 0 0 Z " fill="#D29C9C" transform="translate(117,34)"/>
<path d="M0 0 C0.99 0.33 1.98 0.66 3 1 C3.54296875 2.83984375 3.54296875 2.83984375 4 5 C4.72760026 6.21447031 5.50247471 7.40138015 6.3125 8.5625 C10.27697864 14.7166616 13.36081402 21.58326728 13 29 C9.37884358 28.79307678 8.07192919 28.06679139 5.375 25.5625 C-0.32793518 17.98857032 -0.42266632 9.11080725 0 0 Z " fill="#82B89C" transform="translate(191,52)"/>
<path d="M0 0 C6.59229145 -0.7013076 10.49376557 1.50397814 16 5 C16 5.33 16 5.66 16 6 C14.35 6 12.7 6 11 6 C11.495 11.94 11.495 11.94 12 18 C28.83 18 45.66 18 63 18 C63 18.66 63 19.32 63 20 C28.35 20 -6.3 20 -42 20 C-42 19.67 -42 19.34 -42 19 C-16.755 18.505 -16.755 18.505 9 18 C9.495 11.565 9.495 11.565 10 5 C4.555 4.505 4.555 4.505 -1 4 C-0.67 2.68 -0.34 1.36 0 0 Z " fill="#84705E" transform="translate(112,72)"/>
<path d="M0 0 C0.33 0 0.66 0 1 0 C1.0505963 6.37203593 1.08568957 12.7440203 1.10986328 19.11621094 C1.11993789 21.28517594 1.13359798 23.45412731 1.15087891 25.62304688 C1.17506323 28.73571126 1.18646832 31.84819651 1.1953125 34.9609375 C1.20563507 35.934935 1.21595764 36.9089325 1.22659302 37.91244507 C1.22674408 38.81322784 1.22689514 39.71401062 1.22705078 40.64208984 C1.231492 41.43706879 1.23593323 42.23204773 1.24050903 43.05111694 C1 45 1 45 -1 47 C-1.60311615 48.68761858 -2.13850237 50.40014476 -2.625 52.125 C-2.88539063 53.03507812 -3.14578125 53.94515625 -3.4140625 54.8828125 C-3.60742188 55.58148438 -3.80078125 56.28015625 -4 57 C-4.99 56.67 -5.98 56.34 -7 56 C-8.52160014 52.3962102 -9 49.94779314 -9 46 C-10.98 46 -12.96 46 -15 46 C-13 44 -13 44 -10.1796875 43.8046875 C-9.08914062 43.82789063 -7.99859375 43.85109375 -6.875 43.875 C-5.77929688 43.89304688 -4.68359375 43.91109375 -3.5546875 43.9296875 C-2.71164063 43.95289063 -1.86859375 43.97609375 -1 44 C-1.00523682 42.70263916 -1.01047363 41.40527832 -1.01586914 40.06860352 C-1.03391469 35.27352585 -1.04543037 30.4784512 -1.05493164 25.68334961 C-1.05997288 23.60456844 -1.06680574 21.52579084 -1.07543945 19.44702148 C-1.08751422 16.46597414 -1.09323024 13.48497351 -1.09765625 10.50390625 C-1.10539818 9.10078941 -1.10539818 9.10078941 -1.11329651 7.66932678 C-1.11337204 6.80850998 -1.11344757 5.94769318 -1.11352539 5.06079102 C-1.115746 4.29912125 -1.11796661 3.53745148 -1.12025452 2.75270081 C-1 1 -1 1 0 0 Z M-8 46 C-7.34 48.31 -6.68 50.62 -6 53 C-3.64046906 50.64046906 -3.50858587 49.22104383 -3 46 C-4.65 46 -6.3 46 -8 46 Z " fill="#766151" transform="translate(188,57)"/>
<path d="M0 0 C10.97592998 -0.63019694 10.97592998 -0.63019694 15.25 2 C15.8275 2.66 16.405 3.32 17 4 C15.68 4 14.36 4 13 4 C13.33 4.66 13.66 5.32 14 6 C14.039992 7.99960012 14.04346799 10.00047242 14 12 C10.95694001 12.97812643 9.0322553 13.04560527 6 12 C5 11 5 11 4.90234375 8.93359375 C4.91974609 7.69802734 4.91974609 7.69802734 4.9375 6.4375 C4.94652344 5.61121094 4.95554687 4.78492188 4.96484375 3.93359375 C4.97644531 3.29550781 4.98804688 2.65742187 5 2 C3.02 2.33 1.04 2.66 -1 3 C-0.67 2.01 -0.34 1.02 0 0 Z " fill="#D8786D" transform="translate(57,55)"/>
<path d="M0 0 C0.66 0 1.32 0 2 0 C2 1.65 2 3.3 2 5 C2.56962967 4.99777939 3.13925934 4.99555878 3.72615051 4.99327087 C9.64693577 4.97117275 15.56770934 4.95607441 21.48852539 4.94506836 C23.69914221 4.940035 25.90975569 4.93320783 28.12036133 4.92456055 C31.295093 4.91245141 34.46978072 4.90676175 37.64453125 4.90234375 C39.13059624 4.89460182 39.13059624 4.89460182 40.64668274 4.88670349 C41.56741074 4.88662796 42.48813873 4.88655243 43.43676758 4.88647461 C44.65255241 4.88314369 44.65255241 4.88314369 45.89289856 4.87974548 C48 5 48 5 51 6 C51.495 7.485 51.495 7.485 52 9 C50.10507994 9.33848652 48.20901534 9.67056911 46.3125 10 C45.25675781 10.185625 44.20101562 10.37125 43.11328125 10.5625 C40.35095938 10.95068074 37.78257957 11.08259976 35 11 C36.63412443 9.29159719 37.86906094 8.06546953 40 7 C30.43 6.67 20.86 6.34 11 6 C10.67 6.99 10.34 7.98 10 9 C9.01 8.34 8.02 7.68 7 7 C5.00039988 6.960008 2.99952758 6.95653201 1 7 C0 6 0 6 -0.0625 2.9375 C-0.041875 1.968125 -0.02125 0.99875 0 0 Z " fill="#957073" transform="translate(46,68)"/>
<path d="M0 0 C2.31 0.66 4.62 1.32 7 2 C7.1953125 8.0546875 7.1953125 8.0546875 7 10 C5 12 5 12 3.0546875 12.1953125 C1.03645833 12.13020833 -0.98177083 12.06510417 -3 12 C-4.0326802 9.21176345 -4.04509293 8.1322726 -3.0625 5.25 C-2.711875 4.5075 -2.36125 3.765 -2 3 C-1.34 3 -0.68 3 0 3 C0 2.01 0 1.02 0 0 Z " fill="#512D14" transform="translate(103,7)"/>
<path d="M0 0 C1.2065625 0.0309375 1.2065625 0.0309375 2.4375 0.0625 C2.51097656 0.98482422 2.51097656 0.98482422 2.5859375 1.92578125 C2.66070312 2.73402344 2.73546875 3.54226562 2.8125 4.375 C2.88210937 5.17550781 2.95171875 5.97601563 3.0234375 6.80078125 C3.33314426 9.33474441 3.33314426 9.33474441 5.4375 12.0625 C-0.71484375 12.16015625 -0.71484375 12.16015625 -2.5625 12.0625 C-3.5625 11.0625 -3.5625 11.0625 -3.6953125 8.8125 C-3.69273438 7.905 -3.69015625 6.9975 -3.6875 6.0625 C-3.69007812 5.155 -3.69265625 4.2475 -3.6953125 3.3125 C-3.50465529 0.08254264 -3.25740423 0.07944888 0 0 Z " fill="#F7CCAC" transform="translate(59.5625,56.9375)"/>
<path d="M0 0 C0 2.64 0 5.28 0 8 C-5.75 11 -5.75 11 -8 11 C-8 10.34 -8 9.68 -8 9 C-8.66 9 -9.32 9 -10 9 C-10.33 8.01 -10.66 7.02 -11 6 C-10.67 5.34 -10.34 4.68 -10 4 C-8.35 4 -6.7 4 -5 4 C-5 3.34 -5 2.68 -5 2 C-1.125 0 -1.125 0 0 0 Z " fill="#70462A" transform="translate(122,39)"/>
<path d="M0 0 C0.33 0.66 0.66 1.32 1 2 C3.52733235 2.65555119 3.52733235 2.65555119 6 3 C6 4.65 6 6.3 6 8 C2.7 8 -0.6 8 -4 8 C-4 6.35 -4 4.7 -4 3 C-2 1.1875 -2 1.1875 0 0 Z " fill="#5F381D" transform="translate(103,44)"/>
<path d="M0 0 C3.0390625 0.0234375 3.0390625 0.0234375 6.625 0.375 C7.81351563 0.48585938 9.00203125 0.59671875 10.2265625 0.7109375 C11.14179688 0.80632812 12.05703125 0.90171875 13 1 C11.68 4.96 10.36 8.92 9 13 C8.01 12.67 7.02 12.34 6 12 C4.47839986 8.3962102 4 5.94779314 4 2 C2.02 2 0.04 2 -2 2 C-1.34 1.34 -0.68 0.68 0 0 Z M5 2 C5.66 4.31 6.32 6.62 7 9 C9.35953094 6.64046906 9.49141413 5.22104383 10 2 C8.35 2 6.7 2 5 2 Z " fill="#0D0B09" transform="translate(175,101)"/>
<path d="M0 0 C2.475 0.495 2.475 0.495 5 1 C5 1.66 5 2.32 5 3 C5.99 3.33 6.98 3.66 8 4 C8 5.65 8 7.3 8 9 C2.25 9.125 2.25 9.125 0 8 C0 5.36 0 2.72 0 0 Z " fill="#DB9FB0" transform="translate(102,37)"/>
<path d="M0 0 C0.16276042 1.98567708 0.32552083 3.97135417 0.48828125 5.95703125 C0.92360313 8.43771309 0.92360313 8.43771309 4 11 C1.03 11 -1.94 11 -5 11 C-5 7.7 -5 4.4 -5 1 C-1 0 -1 0 0 0 Z " fill="#DBB49E" transform="translate(75,58)"/>
<path d="M0 0 C0.33 0.99 0.66 1.98 1 3 C-0.89492006 3.33848652 -2.79098466 3.67056911 -4.6875 4 C-5.74324219 4.185625 -6.79898438 4.37125 -7.88671875 4.5625 C-10.64904062 4.95068074 -13.21742043 5.08259976 -16 5 C-10.85639881 -0.68503289 -7.29586808 -1.36024659 0 0 Z " fill="#5B6578" transform="translate(97,74)"/>
<path d="M0 0 C0 0.99 0 1.98 0 3 C-0.66 3 -1.32 3 -2 3 C-2.2475 3.721875 -2.495 4.44375 -2.75 5.1875 C-4.13141128 8.29567538 -5.66853254 10.52723148 -8 13 C-8.99 13 -9.98 13 -11 13 C-9.22383601 7.96753536 -6.26538194 0 0 0 Z " fill="#E19FAF" transform="translate(63,101)"/>
<path d="M0 0 C6.59229145 -0.7013076 10.49376557 1.50397814 16 5 C16 5.33 16 5.66 16 6 C10.32644329 5.38273804 4.66138945 4.72054048 -1 4 C-0.67 2.68 -0.34 1.36 0 0 Z " fill="#586377" transform="translate(112,72)"/>
<path d="M0 0 C2.97 0 5.94 0 9 0 C7.68 0.33 6.36 0.66 5 1 C4.87625 2.0725 4.7525 3.145 4.625 4.25 C4.10356064 7.37863615 3.59911746 9.33480424 2 12 C1.34 12 0.68 12 0 12 C-1.60355101 8.49223216 -2.22036864 5.85645121 -2 2 C-1.01 3.32 -0.02 4.64 1 6 C1.66 4.35 2.32 2.7 3 1 C2.01 0.67 1.02 0.34 0 0 Z " fill="#090806" transform="translate(63,102)"/>
<path d="M0 0 C1.134375 0.020625 2.26875 0.04125 3.4375 0.0625 C3.7675 1.0525 4.0975 2.0425 4.4375 3.0625 C2.7875 3.3925 1.1375 3.7225 -0.5625 4.0625 C-0.2325 5.0525 0.0975 6.0425 0.4375 7.0625 C-1.2125 6.7325 -2.8625 6.4025 -4.5625 6.0625 C-4.605221 4.39638095 -4.60313832 2.72867115 -4.5625 1.0625 C-3.5625 0.0625 -3.5625 0.0625 0 0 Z " fill="#804734" transform="translate(104.5625,10.9375)"/>
<path d="M0 0 C0.99 0.66 1.98 1.32 3 2 C3.1875 5.625 3.1875 5.625 3 9 C0.69 9 -1.62 9 -4 9 C-2.80100302 5.9168649 -1.52299523 2.93720508 0 0 Z " fill="#E5A9B3" transform="translate(66,92)"/>
<path d="M0 0 C2.31 0 4.62 0 7 0 C4.82681003 3.97169202 3.22914643 6.77085357 0 10 C0 6.7 0 3.4 0 0 Z " fill="#F7CFB0" transform="translate(71,77)"/>
<path d="M0 0 C2.31 0 4.62 0 7 0 C7.33 1.32 7.66 2.64 8 4 C4.94736336 4.98120464 3.05263664 4.98120464 0 4 C0 2.68 0 1.36 0 0 Z " fill="#F3E6A7" transform="translate(79,52)"/>
<path d="M0 0 C6.37675351 6.20440882 6.37675351 6.20440882 8 9 C7.5703125 11.12109375 7.5703125 11.12109375 7 13 C5.82157218 11.59310148 4.65762602 10.17406375 3.5 8.75 C2.8503125 7.96109375 2.200625 7.1721875 1.53125 6.359375 C0 4 0 4 0 0 Z " fill="#CA999C" transform="translate(58,79)"/>
<path d="M0 0 C0.66 0 1.32 0 2 0 C0.62262427 4.01734589 -1.33026125 6.72741701 -4 10 C-4.33 10.99 -4.66 11.98 -5 13 C-7.0625 13.6875 -7.0625 13.6875 -9 14 C-8.67 13.01 -8.34 12.02 -8 11 C-7.34 11 -6.68 11 -6 11 C-5.7525 10.29875 -5.505 9.5975 -5.25 8.875 C-3.82819762 5.60485452 -2.12753712 2.858878 0 0 Z " fill="#E4A9B2" transform="translate(77,78)"/>
<path d="M0 0 C3.3 0.33 6.6 0.66 10 1 C10 1.66 10 2.32 10 3 C11.32 3.33 12.64 3.66 14 4 C7.375 4.125 7.375 4.125 4 3 C4 3.66 4 4.32 4 5 C2.68 5.33 1.36 5.66 0 6 C0 4.02 0 2.04 0 0 Z " fill="#BC9F6E" transform="translate(86,52)"/>
<path d="M0 0 C0 5.28 0 10.56 0 16 C-0.66 14.68 -1.32 13.36 -2 12 C-2.98879205 10.32665961 -3.98648336 8.65848177 -5 7 C-3.68 7.33 -2.36 7.66 -1 8 C-1.57452746 4.06924356 -1.57452746 4.06924356 -4 1 C-1 0 -1 0 0 0 Z " fill="#A97C81" transform="translate(111,38)"/>
<path d="M0 0 C4.875 4.625 4.875 4.625 6 8 C3.625 7.75 3.625 7.75 1 7 C-0.375 5.125 -0.375 5.125 -1 3 C-0.67 2.01 -0.34 1.02 0 0 Z " fill="#7C5963" transform="translate(78,106)"/>
<path d="M0 0 C0.99 0.33 1.98 0.66 3 1 C2.71125 1.495 2.4225 1.99 2.125 2.5 C1.092948 4.7934489 0.58434199 6.74492866 0.0625 9.1875 C-0.288125 10.445625 -0.63875 11.70375 -1 13 C-1.99 13.33 -2.98 13.66 -4 14 C-4.33 13.01 -4.66 12.02 -5 11 C-3.68 10.67 -2.36 10.34 -1 10 C-1.01160156 9.36191406 -1.02320312 8.72382812 -1.03515625 8.06640625 C-1.04869141 6.82697266 -1.04869141 6.82697266 -1.0625 5.5625 C-1.07410156 4.73878906 -1.08570312 3.91507813 -1.09765625 3.06640625 C-1 1 -1 1 0 0 Z " fill="#C59D79" transform="translate(123,37)"/>
<path d="M0 0 C0.33 0.66 0.66 1.32 1 2 C1.66 2 2.32 2 3 2 C3 2.66 3 3.32 3 4 C3.99 3.67 4.98 3.34 6 3 C5.67 3.99 5.34 4.98 5 6 C2.4375 7.1875 2.4375 7.1875 0 8 C0 5.36 0 2.72 0 0 Z " fill="#DC9EAD" transform="translate(111,46)"/>
<path d="M0 0 C2.6875 1.9375 2.6875 1.9375 5 4 C2.03 4 -0.94 4 -4 4 C-3.67 3.01 -3.34 2.02 -3 1 C-2.01 0.67 -1.02 0.34 0 0 Z " fill="#F3CDAE" transform="translate(74,65)"/>
<path d="M0 0 C0.66 0 1.32 0 2 0 C2 1.65 2 3.3 2 5 C3.32 5 4.64 5 6 5 C6 5.66 6 6.32 6 7 C4.33388095 7.042721 2.66617115 7.04063832 1 7 C0 6 0 6 -0.0625 2.9375 C-0.041875 1.968125 -0.02125 0.99875 0 0 Z " fill="#51393F" transform="translate(46,68)"/>
<path d="M0 0 C0.66 0 1.32 0 2 0 C2 1.65 2 3.3 2 5 C0.35 5 -1.3 5 -3 5 C-1.125 1.125 -1.125 1.125 0 0 Z " fill="#F6CFB0" transform="translate(67,96)"/>
<path d="M0 0 C2 1 2 1 3 3 C0.36 3.33 -2.28 3.66 -5 4 C-3.36587557 2.29159719 -2.13093906 1.06546953 0 0 Z " fill="#666D7D" transform="translate(86,75)"/>
<path d="M0 0 C0.66 0 1.32 0 2 0 C2 0.99 2 1.98 2 3 C2.66 3.33 3.32 3.66 4 4 C2.35 4.66 0.7 5.32 -1 6 C-1.33 5.01 -1.66 4.02 -2 3 C-1.34 2.01 -0.68 1.02 0 0 Z " fill="#613C28" transform="translate(115,44)"/>
<path d="M0 0 C0.33 0.66 0.66 1.32 1 2 C1.99 2.33 2.98 2.66 4 3 C4.33 3.99 4.66 4.98 5 6 C3.35 5.67 1.7 5.34 0 5 C0 3.35 0 1.7 0 0 Z " fill="#633719" transform="translate(100,12)"/>
</svg>
