<?xml version="1.0" encoding="UTF-8"?>
<svg version="1.1" xmlns="http://www.w3.org/2000/svg" width="552" height="114">
<path d="M0 0 C3.2741656 1.28457227 3.95975084 1.93962626 6 5 C6.1875 7.4375 6.1875 7.4375 5 10 C2.12368204 11.67604994 -0.87400814 12.86959082 -4 14 C-3.67644531 14.59683594 -3.35289062 15.19367187 -3.01953125 15.80859375 C-1.66488872 18.72029667 -1.66213101 20.82403148 -2 24 C-4.5611898 27.40245652 -8.53321383 29.16059905 -12.1875 31.1875 C-12.84169922 31.55552734 -13.49589844 31.92355469 -14.16992188 32.30273438 C-15.77746961 33.2062466 -17.38840651 34.1037241 -19 35 C-17.7934375 35.86625 -17.7934375 35.86625 -16.5625 36.75 C-14 39 -14 39 -12.9765625 41 C-13.01107489 43.94505701 -14.33965945 44.94052497 -16.375 47 C-18.94782079 49.6240722 -20.42541629 51.32266427 -21 55 C-19.68 55.99 -18.36 56.98 -17 58 C-17.06640625 60.203125 -17.06640625 60.203125 -18 63 C-20.30852431 64.8094628 -22.43386458 66.27610561 -24.9375 67.75 C-25.58396484 68.14832031 -26.23042969 68.54664062 -26.89648438 68.95703125 C-29.22687089 70.38478623 -31.55461128 71.77730564 -34 73 C-31.36 73.33 -28.72 73.66 -26 74 C-25.90101385 78.91123589 -25.82847753 83.82188938 -25.78027344 88.73388672 C-25.76017607 90.40423702 -25.73289317 92.07451713 -25.69824219 93.74462891 C-25.64963881 96.1476372 -25.62701344 98.54971434 -25.609375 100.953125 C-25.58872986 101.69806213 -25.56808472 102.44299927 -25.54681396 103.21051025 C-25.54537396 106.54893201 -25.7707474 108.64803903 -27.61010742 111.47192383 C-30.76955817 113.49204869 -32.89026903 113.50199025 -36.62890625 113.49609375 C-38.55186523 113.49706055 -38.55186523 113.49706055 -40.51367188 113.49804688 C-41.5103186 113.48245728 -41.5103186 113.48245728 -42.52709961 113.46655273 C-44.55990925 113.43753698 -46.59011817 113.44596066 -48.62304688 113.45898438 C-58.27473482 113.39583795 -58.27473482 113.39583795 -60.88769531 111.96972656 C-62.6665214 108.81968949 -62.36556336 105.56754732 -62.29296875 102.05078125 C-62.28872391 101.27816452 -62.28447906 100.50554779 -62.28010559 99.70951843 C-62.26332183 97.24349008 -62.22567147 94.77828104 -62.1875 92.3125 C-62.17245271 90.63998577 -62.15876438 88.96745872 -62.14648438 87.29492188 C-62.11341946 83.19629922 -62.06164028 79.09828849 -62 75 C-56.555 74.505 -56.555 74.505 -51 74 C-53.85285562 71.14714438 -56.09790961 69.72695511 -59.625 67.875 C-64.91666667 65.08333333 -64.91666667 65.08333333 -66 64 C-66.375 61.125 -66.375 61.125 -66 58 C-63.5 56.125 -63.5 56.125 -61 55 C-61.84884766 54.52820312 -61.84884766 54.52820312 -62.71484375 54.046875 C-63.44832031 53.61890625 -64.18179688 53.1909375 -64.9375 52.75 C-65.66839844 52.33234375 -66.39929688 51.9146875 -67.15234375 51.484375 C-69 50 -69 50 -69.87890625 47.953125 C-69.91886719 47.30859375 -69.95882812 46.6640625 -70 46 C-67.4345406 43.4345406 -65.52313332 43.45953913 -62 43 C-62.825 42.113125 -63.65 41.22625 -64.5 40.3125 C-66.2527177 38.18419994 -66.9738538 37.10981403 -67.625 34.375 C-67 32 -67 32 -65 29.6875 C-60.82682804 27.34009077 -58.75453845 27.32078022 -54 28 C-51.625 30.375 -51.625 30.375 -50 33 C-49.34 33.66 -48.68 34.32 -48 35 C-47.54625 34.175 -47.0925 33.35 -46.625 32.5 C-46.08875 31.675 -45.5525 30.85 -45 30 C-44.34 30 -43.68 30 -43 30 C-43.02320313 29.31292969 -43.04640625 28.62585938 -43.0703125 27.91796875 C-43.08835937 27.01691406 -43.10640625 26.11585937 -43.125 25.1875 C-43.14820313 24.29417969 -43.17140625 23.40085937 -43.1953125 22.48046875 C-43 20 -43 20 -41 17 C-37.92078868 16.74339906 -35.78863007 16.60568496 -33 18 C-32.9175 16.96875 -32.835 15.9375 -32.75 14.875 C-31.91708366 10.57159893 -30.89161085 8.28236907 -28 5 C-24.7747529 3.97066582 -22.86058448 3.72823648 -19.625 4.75 C-16.40949835 5.05623825 -15.82677656 4.38050243 -13.25 2.5625 C-8.90779557 -0.39809393 -5.15742918 -0.9209695 0 0 Z " fill="#77A990" transform="translate(308,1)"/>
<path d="M0 0 C11.55 0.33 23.1 0.66 35 1 C36.23097826 20.69565217 36.23097826 20.69565217 36.3125 26.25 C36.34150391 26.95511719 36.37050781 27.66023438 36.40039062 28.38671875 C36.43992591 31.60428243 36.32102088 33.56382187 34.38769531 36.19067383 C31.23698524 38.57819043 29.29862558 38.50228817 25.37109375 38.49609375 C23.44813477 38.49706055 23.44813477 38.49706055 21.48632812 38.49804688 C20.4896814 38.48245728 20.4896814 38.48245728 19.47290039 38.46655273 C17.44009075 38.43753698 15.40988183 38.44596066 13.37695312 38.45898438 C3.72526518 38.39583795 3.72526518 38.39583795 1.11230469 36.96972656 C-0.66637662 33.81994587 -0.3658731 30.56760286 -0.29296875 27.05078125 C-0.28994751 26.36576538 -0.28692627 25.68074951 -0.28381348 24.97497559 C-0.26813938 22.42066339 -0.22625513 19.86656627 -0.1875 17.3125 C-0.125625 11.599375 -0.06375 5.88625 0 0 Z " fill="#90ACE5" transform="translate(246,76)"/>
<path d="M0 0 C4.46031572 3.63867862 5.10190064 8.57595256 6 14 C8.31 14 10.62 14 13 14 C14.32854177 19.9180497 13.66464729 22.77729131 11 28 C12.32 28 13.64 28 15 28 C15.33667149 32.82562471 14.4380148 34.936642 12 39 C11.74863967 42.20916171 11.74863967 42.20916171 12 45 C11.34 44.67 10.68 44.34 10 44 C9.67 44.66 9.34 45.32 9 46 C8.34 46 7.68 46 7 46 C6.34 40.06 5.68 34.12 5 28 C5.6578866 32.60520622 6.11854168 36.39812432 6.0625 40.9375 C6.05347656 41.89527344 6.04445313 42.85304687 6.03515625 43.83984375 C6.02355469 44.55269531 6.01195312 45.26554687 6 46 C3.3725162 44.71319131 0.74803317 43.42082322 -1.875 42.125 C-2.62136719 41.76019531 -3.36773437 41.39539063 -4.13671875 41.01953125 C-4.85214844 40.66503906 -5.56757813 40.31054688 -6.3046875 39.9453125 C-7.2944458 39.45828857 -7.2944458 39.45828857 -8.30419922 38.96142578 C-10 38 -10 38 -12 36 C-12.4375 33.0625 -12.4375 33.0625 -12 30 C-9.5 28.125 -9.5 28.125 -7 27 C-7.56589844 26.68546875 -8.13179687 26.3709375 -8.71484375 26.046875 C-9.44832031 25.61890625 -10.18179688 25.1909375 -10.9375 24.75 C-11.66839844 24.33234375 -12.39929688 23.9146875 -13.15234375 23.484375 C-15 22 -15 22 -15.87890625 19.953125 C-15.91886719 19.30859375 -15.95882812 18.6640625 -16 18 C-13.4345406 15.4345406 -11.52313332 15.45953913 -8 15 C-8.825 14.113125 -9.65 13.22625 -10.5 12.3125 C-12.2527177 10.18419994 -12.9738538 9.10981403 -13.625 6.375 C-13 4 -13 4 -11 1.6875 C-6.82682804 -0.65990923 -4.75453845 -0.67921978 0 0 Z " fill="#7CB296" transform="translate(254,29)"/>
<path d="M0 0 C0.33 0 0.66 0 1 0 C1.66 4.95 2.32 9.9 3 15 C2.34 13.68 1.68 12.36 1 11 C-2.12606964 12.60480784 -2.12606964 12.60480784 -2.51171875 14.9453125 C-2.59873047 16.02425781 -2.59873047 16.02425781 -2.6875 17.125 C-2.790625 18.40375 -2.89375 19.6825 -3 21 C-1.35 21 0.3 21 2 21 C2 21.33 2 21.66 2 22 C-0.31 22 -2.62 22 -5 22 C-5.33 22.66 -5.66 23.32 -6 24 C-5.38029501 14.19156581 -5.38029501 14.19156581 -2 10 C-1.34 10 -0.68 10 0 10 C0 6.7 0 3.4 0 0 Z " fill="#2D4137" transform="translate(265,21)"/>
<path d="M0 0 C0.66 0.33 1.32 0.66 2 1 C2.5625 3.3125 2.5625 3.3125 3 6 C3.2784375 6.928125 3.2784375 6.928125 3.5625 7.875 C4.20014159 10.97211629 4.17183708 13.84965354 4 17 C3.34 17.99 2.68 18.98 2 20 C2 18.02 2 16.04 2 14 C0.68 14 -0.64 14 -2 14 C-1.67 12.989375 -1.34 11.97875 -1 10.9375 C0.07001321 7.24520089 0.15704155 3.84751793 0 0 Z " fill="#597F6B" transform="translate(267,43)"/>
</svg>
