<?xml version="1.0" encoding="UTF-8"?>
<svg version="1.1" xmlns="http://www.w3.org/2000/svg" width="84" height="147">
<path d="M0 0 C3.41577097 3.8061448 5.1875 7.33615406 5.1875 12.5 C3.87616486 16.35204696 1.88853098 18.39884015 -0.8125 21.4375 C-1.1425 22.4275 -1.4725 23.4175 -1.8125 24.4375 C-0.678125 24.47875 0.45625 24.52 1.625 24.5625 C7.96490976 25.38163878 12.86445185 28.81799592 17.0546875 33.54296875 C20.94658341 38.65457366 22.85242238 41.78827618 22.1875 48.4375 C20.125 51.8125 20.125 51.8125 17.1875 54.4375 C13.375 55.3125 13.375 55.3125 10.1875 55.4375 C10.1875 58.4075 10.1875 61.3775 10.1875 64.4375 C9.5275 64.4375 8.8675 64.4375 8.1875 64.4375 C8.34990173 65.01960236 8.51230347 65.60170471 8.67962646 66.20144653 C9.47472021 69.70206628 9.32434216 73.23247041 9.328125 76.8046875 C9.3428782 78.502863 9.35929917 80.20102465 9.37719727 81.89916992 C9.38631134 82.78446381 9.39542542 83.66975769 9.40481567 84.58187866 C9.58715595 99.81554894 10.43193838 113.90297304 14.73486328 128.61474609 C15.31008044 130.93112758 15.36184149 133.06377352 15.1875 135.4375 C15.1875 136.0975 15.1875 136.7575 15.1875 137.4375 C15.785625 136.6125 16.38375 135.7875 17 134.9375 C17.721875 134.1125 18.44375 133.2875 19.1875 132.4375 C20.1775 132.4375 21.1675 132.4375 22.1875 132.4375 C23.609375 134.01171875 23.609375 134.01171875 24.9375 136.125 C25.38609375 136.80949219 25.8346875 137.49398437 26.296875 138.19921875 C27.1875 140.4375 27.1875 140.4375 26.1875 145.4375 C19.2575 145.4375 12.3275 145.4375 5.1875 145.4375 C5.1875 142.7975 5.1875 140.1575 5.1875 137.4375 C4.51426948 135.75743815 3.83344122 134.07758112 3.04736328 132.44726562 C1.16970026 128.05858817 0.24988035 123.3136064 -0.875 118.6875 C-1.13087891 117.6665625 -1.38675781 116.645625 -1.65039062 115.59375 C-3.29914234 108.91397443 -4.66487375 102.22098547 -5.8125 95.4375 C-6.83969197 100.75551316 -7.85455155 106.07567798 -8.8581543 111.39819336 C-9.20114288 113.2077538 -9.54746721 115.01668533 -9.8972168 116.82495117 C-10.39994802 119.42728251 -10.89055967 122.03165472 -11.37890625 124.63671875 C-11.53718399 125.44211594 -11.69546173 126.24751312 -11.85853577 127.07731628 C-12.61409266 131.17466659 -13.02343054 134.3579573 -11.8125 138.4375 C-10.70138889 143.21527778 -10.70138889 143.21527778 -11.8125 145.4375 C-15.4425 145.4375 -19.0725 145.4375 -22.8125 145.4375 C-23.6996306 141.001847 -23.72292139 139.53439624 -22.8125 135.4375 C-23.1425 135.1075 -23.4725 134.7775 -23.8125 134.4375 C-23.85444308 132.43265892 -23.82211009 130.42624519 -23.76171875 128.421875 C-23.72361084 127.12435303 -23.68550293 125.82683105 -23.64624023 124.48999023 C-23.59788099 123.0558137 -23.54912396 121.62165054 -23.5 120.1875 C-23.47704865 119.46829376 -23.45409729 118.74908752 -23.43045044 118.00808716 C-22.85892156 100.13654395 -21.85460591 82.28678713 -20.8125 64.4375 C-21.4725 64.4375 -22.1325 64.4375 -22.8125 64.4375 C-22.85375 63.695 -22.895 62.9525 -22.9375 62.1875 C-24.16457544 58.33097719 -26.44169407 57.52739967 -29.8125 55.4375 C-32.5345998 52.89687352 -32.79482496 51.56564406 -33.3125 47.8125 C-33.02897728 41.46867918 -30.11775902 35.91622406 -25.83984375 31.31640625 C-21.34915279 27.27898129 -18.01556034 24.4375 -11.8125 24.4375 C-11.8125 23.7775 -11.8125 23.1175 -11.8125 22.4375 C-12.699375 22.56125 -13.58625 22.685 -14.5 22.8125 C-17.8125 22.4375 -17.8125 22.4375 -20.6875 20.0625 C-23.311208 16.48780399 -23.47663502 13.11061339 -23.22265625 8.7734375 C-22.60457685 5.25332818 -21.56820595 3.71095741 -18.8125 1.4375 C-12.89158493 -1.78494493 -6.14568142 -3.41426746 0 0 Z " fill="#8AA4DA" transform="translate(44.8125,1.5625)"/>
<path d="M0 0 C3.41577097 3.8061448 5.1875 7.33615406 5.1875 12.5 C3.87616486 16.35204696 1.88853098 18.39884015 -0.8125 21.4375 C-1.1425 22.4275 -1.4725 23.4175 -1.8125 24.4375 C-0.678125 24.47875 0.45625 24.52 1.625 24.5625 C7.96490976 25.38163878 12.86445185 28.81799592 17.0546875 33.54296875 C20.94658341 38.65457366 22.85242238 41.78827618 22.1875 48.4375 C20.125 51.8125 20.125 51.8125 17.1875 54.4375 C13.375 55.3125 13.375 55.3125 10.1875 55.4375 C10.1875 58.4075 10.1875 61.3775 10.1875 64.4375 C8.12242188 64.31181641 8.12242188 64.31181641 6.015625 64.18359375 C-3.69780589 63.63234574 -13.1383622 63.1355974 -22.8125 64.4375 C-22.91820312 63.65503906 -23.02390625 62.87257813 -23.1328125 62.06640625 C-24.1252189 58.2279608 -26.53053455 57.47231858 -29.8125 55.4375 C-32.5345998 52.89687352 -32.79482496 51.56564406 -33.3125 47.8125 C-33.02897728 41.46867918 -30.11775902 35.91622406 -25.83984375 31.31640625 C-21.34915279 27.27898129 -18.01556034 24.4375 -11.8125 24.4375 C-11.8125 23.7775 -11.8125 23.1175 -11.8125 22.4375 C-12.699375 22.56125 -13.58625 22.685 -14.5 22.8125 C-17.8125 22.4375 -17.8125 22.4375 -20.6875 20.0625 C-23.311208 16.48780399 -23.47663502 13.11061339 -23.22265625 8.7734375 C-22.60457685 5.25332818 -21.56820595 3.71095741 -18.8125 1.4375 C-12.89158493 -1.78494493 -6.14568142 -3.41426746 0 0 Z " fill="#E6B68B" transform="translate(44.8125,1.5625)"/>
<path d="M0 0 C2.70643291 3.01573953 3.98629452 5.56694901 5.1875 9.4375 C4.875 12.875 4.875 12.875 4.1875 15.4375 C3.1975 15.7675 2.2075 16.0975 1.1875 16.4375 C0.5275 14.7875 -0.1325 13.1375 -0.8125 11.4375 C-3.1225 11.4375 -5.4325 11.4375 -7.8125 11.4375 C-8.95769012 13.72788024 -8.88601912 14.96818537 -8.8125 17.5 C-8.8125 18.799375 -8.8125 20.09875 -8.8125 21.4375 C-9.8125 22.4375 -9.8125 22.4375 -13.5625 22.875 C-17.18585302 22.80331496 -17.77420502 22.46781686 -20.8125 20.0625 C-23.74547028 15.87680342 -23.67201754 11.33265702 -22.8125 6.4375 C-20.5572123 2.02089493 -17.52565799 0.42311823 -12.96484375 -1.0546875 C-8.2328094 -2.17113844 -4.39980958 -2.44433866 0 0 Z " fill="#32210F" transform="translate(44.8125,1.5625)"/>
<path d="M0 0 C-0.66 0.66 -1.32 1.32 -2 2 C-1.34 2.66 -0.68 3.32 0 4 C-0.66 4 -1.32 4 -2 4 C-2 4.66 -2 5.32 -2 6 C0.97 6.495 0.97 6.495 4 7 C4.33 5.02 4.66 3.04 5 1 C8.04386724 0.91773332 10.07175348 1.02391783 13 2 C14.28317892 5.84953676 14.06643637 8.94738135 14 13 C13.42668945 12.96447021 12.85337891 12.92894043 12.26269531 12.89233398 C-3.38722311 11.92638156 -3.38722311 11.92638156 -19 13 C-19 11.35 -19 9.7 -19 8 C-15.04 8.33 -11.08 8.66 -7 9 C-7.33 8.67 -7.66 8.34 -8 8 C-8.04092937 5.66702567 -8.04241723 3.33294775 -8 1 C-3.375 -1.125 -3.375 -1.125 0 0 Z " fill="#EBBA8F" transform="translate(41,53)"/>
<path d="M0 0 C0.99 0 1.98 0 3 0 C4.421875 1.57421875 4.421875 1.57421875 5.75 3.6875 C6.19859375 4.37199219 6.6471875 5.05648437 7.109375 5.76171875 C8 8 8 8 7 13 C0.07 13 -6.86 13 -14 13 C-13 6 -13 6 -12 5 C-10.741875 5.0825 -9.48375 5.165 -8.1875 5.25 C-6.02380648 5.35763806 -6.02380648 5.35763806 -4 5 C-1.66369252 2.60140956 -1.66369252 2.60140956 0 0 Z " fill="#DDA1B1" transform="translate(64,134)"/>
<path d="M0 0 C1.65087847 0.59024148 3.29562407 1.19766006 4.9375 1.8125 C6.31228516 2.31716797 6.31228516 2.31716797 7.71484375 2.83203125 C10 4 10 4 11 7 C12.65 7.33 14.3 7.66 16 8 C16 9.32 16 10.64 16 12 C17.32 11.67 18.64 11.34 20 11 C19.67 8.69 19.34 6.38 19 4 C19.66 3.67 20.32 3.34 21 3 C21 6.96 21 10.92 21 15 C20.01 15.33 19.02 15.66 18 16 C18 15.01 18 14.02 18 13 C17.05125 13.20625 16.1025 13.4125 15.125 13.625 C14.09375 13.74875 13.0625 13.8725 12 14 C11.34 13.34 10.68 12.68 10 12 C10 14.31 10 16.62 10 19 C7.69 18.34 5.38 17.68 3 17 C2.855625 16.195625 2.71125 15.39125 2.5625 14.5625 C2.25864751 12.07896294 2.25864751 12.07896294 1 11 C0.34 10.34 -0.32 9.68 -1 9 C-0.9765625 6.8359375 -0.9765625 6.8359375 -0.625 4.375 C-0.51414063 3.55773438 -0.40328125 2.74046875 -0.2890625 1.8984375 C-0.19367187 1.27195313 -0.09828125 0.64546875 0 0 Z " fill="#D59CAA" transform="translate(36,42)"/>
<path d="M0 0 C3.625 -0.1875 3.625 -0.1875 7 0 C8.625 2.75 8.625 2.75 10 6 C9.14678163 8.79235104 8.07142404 9.92857596 6 12 C3 12.25 3 12.25 0 12 C-2 10 -2 10 -2.25 6.5625 C-2 3 -2 3 0 0 Z " fill="#ADBB9F" transform="translate(37,12)"/>
<path d="M0 0 C1.5 2.875 1.5 2.875 0.5 7.875 C-3.13 7.875 -6.76 7.875 -10.5 7.875 C-11.5 2.875 -11.5 2.875 -11 0.625 C-9.5 -1.125 -9.5 -1.125 -6.125 -2.1875 C-2.5 -2.125 -2.5 -2.125 0 0 Z " fill="#E7AFBC" transform="translate(32.5,139.125)"/>
<path d="M0 0 C1.134375 0.020625 2.26875 0.04125 3.4375 0.0625 C3.7675 1.0525 4.0975 2.0425 4.4375 3.0625 C6.45258358 3.79573796 6.45258358 3.79573796 8.4375 4.0625 C8.4375 5.0525 8.4375 6.0425 8.4375 7.0625 C3.8175 7.0625 -0.8025 7.0625 -5.5625 7.0625 C-4.39827713 0.07716276 -4.39827713 0.07716276 0 0 Z " fill="#F1D0B5" transform="translate(55.5625,138.9375)"/>
<path d="M0 0 C0.33 1.98 0.66 3.96 1 6 C1.99 6 2.98 6 4 6 C4 7.98 4 9.96 4 12 C2.68 12.33 1.36 12.66 0 13 C0 12.34 0 11.68 0 11 C-1.65 11 -3.3 11 -5 11 C-5.75 7.75 -5.75 7.75 -6 4 C-3.02564103 0 -3.02564103 0 0 0 Z " fill="#E5B3B8" transform="translate(52,41)"/>
<path d="M0 0 C0.33 0 0.66 0 1 0 C1 3.96 1 7.92 1 12 C0.01 12.33 -0.98 12.66 -2 13 C-2 12.01 -2 11.02 -2 10 C-2.94875 10.20625 -3.8975 10.4125 -4.875 10.625 C-5.90625 10.74875 -6.9375 10.8725 -8 11 C-8.66 10.34 -9.32 9.68 -10 9 C-10 11.31 -10 13.62 -10 16 C-10.33 16 -10.66 16 -11 16 C-11.33 11.05 -11.66 6.1 -12 1 C-11.34 1 -10.68 1 -10 1 C-9.67 1.99 -9.34 2.98 -9 4 C-7.35 4.33 -5.7 4.66 -4 5 C-4 6.32 -4 7.64 -4 9 C-2.68 8.67 -1.36 8.34 0 8 C-0.2784375 6.2984375 -0.2784375 6.2984375 -0.5625 4.5625 C-0.706875 3.386875 -0.85125 2.21125 -1 1 C-0.67 0.67 -0.34 0.34 0 0 Z " fill="#AB8684" transform="translate(56,45)"/>
<path d="M0 0 C0.66 0 1.32 0 2 0 C2 0.66 2 1.32 2 2 C2.639375 2.12375 3.27875 2.2475 3.9375 2.375 C4.618125 2.58125 5.29875 2.7875 6 3 C6.33 3.66 6.66 4.32 7 5 C6.195625 5.12375 5.39125 5.2475 4.5625 5.375 C3.2940625 5.684375 3.2940625 5.684375 2 6 C1.67 6.66 1.34 7.32 1 8 C3.31 8 5.62 8 8 8 C8 8.33 8 8.66 8 9 C5.03 9 2.06 9 -1 9 C-1.80967438 6.08517222 -2.21845993 4.53886783 -1.0625 1.6875 C-0.711875 1.130625 -0.36125 0.57375 0 0 Z " fill="#C697A5" transform="translate(23,138)"/>
<path d="M0 0 C-0.66 0.66 -1.32 1.32 -2 2 C-1.34 2.66 -0.68 3.32 0 4 C-0.66 4 -1.32 4 -2 4 C-2 4.66 -2 5.32 -2 6 C-3.65 6 -5.3 6 -7 6 C-7.33 6.66 -7.66 7.32 -8 8 C-8 5.69 -8 3.38 -8 1 C-3.375 -1.125 -3.375 -1.125 0 0 Z " fill="#ECCCB0" transform="translate(41,53)"/>
<path d="M0 0 C1.32 0.33 2.64 0.66 4 1 C4 2.98 4 4.96 4 7 C2.68 7.33 1.36 7.66 0 8 C0 7.34 0 6.68 0 6 C-1.65 6 -3.3 6 -5 6 C-4.67 5.01 -4.34 4.02 -4 3 C-1.9375 2.3125 -1.9375 2.3125 0 2 C0 1.34 0 0.68 0 0 Z " fill="#EFCEB3" transform="translate(52,46)"/>
<path d="M0 0 C0.99 0 1.98 0 3 0 C7 5.25714286 7 5.25714286 7 8 C6.01 8 5.02 8 4 8 C3.67 7.01 3.34 6.02 3 5 C-0.60992379 5.65585189 -0.60992379 5.65585189 -4 7 C-2.92598892 4.08482708 -2.22189824 2.22189824 0 0 Z " fill="#855E68" transform="translate(64,134)"/>
<path d="M0 0 C0.66 0.99 1.32 1.98 2 3 C0.84826645 5.46800047 -0.04783565 7.04783565 -2 9 C-5.125 9.125 -5.125 9.125 -8 9 C-7.34 8.01 -6.68 7.02 -6 6 C-5.01 6 -4.02 6 -3 6 C-2.690625 5.38125 -2.38125 4.7625 -2.0625 4.125 C-1.375 2.75 -0.6875 1.375 0 0 Z " fill="#74937C" transform="translate(45,15)"/>
<path d="M0 0 C1.65 0 3.3 0 5 0 C4.01 0.33 3.02 0.66 2 1 C2 2.65 2 4.3 2 6 C1.01 6 0.02 6 -1 6 C-1.33 6.66 -1.66 7.32 -2 8 C-2.66 7.67 -3.32 7.34 -4 7 C-4 5.02 -4 3.04 -4 1 C-2.68 1.99 -1.36 2.98 0 4 C0 2.68 0 1.36 0 0 Z " fill="#84B295" transform="translate(39,14)"/>
<path d="M0 0 C-0.33 1.98 -0.66 3.96 -1 6 C-2.32 6.33 -3.64 6.66 -5 7 C-5.33 5.35 -5.66 3.7 -6 2 C-3 0 -3 0 0 0 Z " fill="#A88C80" transform="translate(44,52)"/>
<path d="M0 0 C1.65 0 3.3 0 5 0 C5.33 0.99 5.66 1.98 6 3 C4.02 3.99 2.04 4.98 0 6 C0 4.02 0 2.04 0 0 Z " fill="#E3A5B3" transform="translate(46,54)"/>
<path d="M0 0 C0.33 0 0.66 0 1 0 C1 3.96 1 7.92 1 12 C0.01 12.33 -0.98 12.66 -2 13 C-2 11.35 -2 9.7 -2 8 C-1.34 8 -0.68 8 0 8 C-0.2784375 6.2984375 -0.2784375 6.2984375 -0.5625 4.5625 C-0.7790625 2.7990625 -0.7790625 2.7990625 -1 1 C-0.67 0.67 -0.34 0.34 0 0 Z " fill="#7A634F" transform="translate(56,45)"/>
<path d="M0 0 C1.32 0 2.64 0 4 0 C4 1.32 4 2.64 4 4 C2.35 4 0.7 4 -1 4 C-0.67 2.68 -0.34 1.36 0 0 Z " fill="#D3CFD0" transform="translate(68,142)"/>
<path d="M0 0 C1.65 0 3.3 0 5 0 C5.33 0.99 5.66 1.98 6 3 C3.69 3 1.38 3 -1 3 C-0.67 2.01 -0.34 1.02 0 0 Z " fill="#E6E4E4" transform="translate(25,143)"/>
</svg>
